<?xml version="1.0" standalone="no"?>
<!DOCTYPE svg PUBLIC "-//W3C//DTD SVG 1.1//EN" "http://www.w3.org/Graphics/SVG/1.1/DTD/svg11.dtd" >
<svg xmlns="http://www.w3.org/2000/svg">
<metadata>Generated by IcoMoon</metadata>
<defs>
<font id="WRMarketing" horiz-adv-x="1024">
<font-face units-per-em="1024" ascent="960" descent="-64" />
<missing-glyph horiz-adv-x="1024" />
<glyph unicode="&#x20;" horiz-adv-x="512" d="" />
<glyph unicode="&#xe900;" glyph-name="Share" horiz-adv-x="1004" d="M866.186 474.724c0 1.354 0 2.751-0.044 4.148-1.004 33.013-34.017 55.851-65.326 45.196-21.179-7.249-33.93-25.851-33.93-49.65 0-144.233 0-288.379-0.044-432.613 0-6.637 0.917-5.764-5.589-5.764-218.555 0-437.11 0-655.709 0-6.463 0-5.677-0.873-5.677 5.72 0 219.036 0 437.984 0 656.976 0 6.812-0.83 5.982 5.895 5.982 137.858 0 275.672 0 413.53 0 3.755 0 7.467 0.087 11.179 0.306 34.235 1.921 56.418 38.427 41.921 69.606-9.301 20-25.633 29.432-47.685 29.388-157.421 0-314.885 0-472.306 0-1.659 0-3.319-0.044-4.934-0.131-22.445-1.004-41.397-17.249-45.938-39.126-0.349-1.616 0-3.581-1.528-4.891 0-0.83 0-1.659 0-2.489 0.83-1.703 0.393-3.537 0.393-5.284 0.044-255.454 0-510.908 0.044-766.362 0-1.441 0-2.926 0-4.41 0.262-14.367 7.118-25.371 17.729-34.366 8.122-6.812 17.642-10.262 28.209-10.961 0.568 0 1.092 0 1.659 0 1.397 0.83 2.969 0.437 4.454 0.437 253.707 0 507.415 0 761.079 0 1.485 0 3.057 0.393 4.498-0.437 0.568 0 1.092 0 1.659 0 0.48 1.266 1.616 0.786 2.489 0.917 8.646 1.135 16.637 4.017 23.624 9.257 14.105 10.655 20.48 24.934 20.48 42.576-0.131 161.962-0.131 323.968-0.131 485.974zM1003.913 590.443c-0.044 17.336 0 34.628 0 51.964 0 19.039 0 38.078 0 57.073 0 17.642 0 35.327 0 52.969 0 14.629 0 29.257 0 43.929 0 16.55 0 33.1 0 49.693 0 21.441 0 42.838 0 64.278 0 5.633-0.087 11.31-2.009 16.725-5.764 16.157-23.362 33.056-47.423 32.925-80.086-0.437-160.216-0.175-240.345-0.175-26.288 0-52.488 0-78.776 0-1.485 0-3.013 0.262-4.498-0.218-34.366-2.707-56.025-35.458-44.279-66.986 7.554-20.087 25.851-32.401 48.689-32.445 64.584-0.044 129.124-0.044 193.708-0.131 1.397 0 2.882 0.393 4.891-0.83-1.616-1.354-2.926-2.314-4.148-3.493-127.421-127.421-254.843-254.843-382.264-382.264-1.747-1.79-3.581-3.493-5.153-5.415-13.1-15.895-16.288-33.668-8.078-52.532 8.297-19.039 23.711-28.995 44.497-29.781 15.196-0.568 27.598 5.982 38.253 16.637 127.596 127.64 255.236 255.236 382.876 382.876 1.223 1.223 2.533 2.358 4.41 4.148 0-2.358 0-3.799 0-5.284 0.131-64.147 0.218-128.338 0.393-192.486 0-3.45 0-6.943 0.524-10.306 3.712-24.017 23.755-41.397 48.514-42.183 23.1-0.742 44.322 16.463 49.213 39.912 0.349 1.485-0.044 3.319 1.441 4.454 0 0.83 0 1.659 0 2.489-0.83 1.441-0.437 2.969-0.437 4.454z" />
<glyph unicode="&#xe901;" glyph-name="go-to-top" horiz-adv-x="1890" d="M106.593 51.475c-58.869-63.775-35.935-115.475 51.336-115.475h1574.605c87.221 0 109.754 52.188 51.336 115.475l-732.046 793.049c-58.869 63.775-154.766 63.287-213.185 0l-732.046-793.049z" />
<glyph unicode="&#xe902;" glyph-name="arrow-down" horiz-adv-x="1536" d="M1360.157 965.176l-682.667-682.667h181.019l-682.667 682.667-181.019-181.019 773.176-773.176 773.176 773.176-181.019 181.019z" />
<glyph unicode="&#xe903;" glyph-name="arrow-right" horiz-adv-x="1443" d="M0.481 467.002c4.089 40.889 35.197 69.592 76.327 70.474 2.325 0.080 4.65 0 6.975 0 359.106 0 718.291 0 1077.637 0 2.485 0 4.971 0 7.857 0-0.802 3.047-3.047 4.49-4.73 6.013-95.088 95.168-190.096 190.176-285.104 285.184-28.863 28.863-32.311 70.073-8.418 101.502 11.545 15.233 26.939 24.453 45.54 28.462 1.283 0.241 2.646-0.241 3.287 1.363 7.617 0 15.073 0 22.69 0 18.921-2.004 33.513-11.625 46.742-24.854 130.365-130.606 260.891-260.971 391.336-391.496 4.57-4.57 9.381-8.178 15.394-10.583 21.407-8.418 35.758-23.812 44.096-45.139 1.764-4.811 1.604-9.862 3.047-14.592 0-4.329 0-8.499 0-12.748-1.042-3.768-1.042-7.536 0-11.385 0-4.65 0-9.22 0-13.87-2.485-19.002-12.748-33.593-26.137-46.903-142.552-142.231-285.023-284.703-427.255-427.174-13.71-13.79-28.623-23.812-48.426-25.255-7.136 0-14.351 0-21.487 0-1.684 2.085-4.249 1.684-6.334 2.085-56.764 14.111-77.209 82.661-37.522 125.555 2.004 2.165 4.169 4.249 6.174 6.334 103.106 103.025 206.131 206.131 309.156 309.236 1.764 1.684 4.009 3.047 5.211 6.494-2.806 0-5.131 0-7.617 0-369.208 0-738.576 0.080-1107.783-0.16-23.171 0-43.215 6.494-59.41 23.091-12.908 13.469-19.803 29.745-21.246 48.105-0.641 3.448-0.641 6.815 0 10.262z" />
<glyph unicode="&#xe904;" glyph-name="printer" horiz-adv-x="1059" d="M1057.545 232.466c0 180.471 0 360.978 0 541.449 0 1.271 0 2.542 0 3.778-0.212 3.919-0.247 7.91-2.26 11.441-6.744 11.935-16.843 18.785-30.685 19.032-13.524 0.282-27.012 0.071-40.501 0.071-42.937 0-85.91 0-128.812 0-4.732 0-5.332 0.706-5.402 5.367 0 0.671 0 1.306 0 2.013 0 33.721 0 67.513 0 101.235 0 4.626-0.106 9.181-0.565 13.806-1.306 12.994-13.7 29.555-30.579 29.025-0.883 0-1.73 0-2.613 0-0.035 0.106-0.106 0.212-0.318 0.318-196.008 0-392.051 0-588.094 0-0.388 0-0.742 0-1.095 0-0.636-0.459-1.271-0.282-1.942-0.282-5.791-0.141-10.946-1.907-15.572-5.473-9.393-7.239-14.159-16.914-14.195-28.672-0.141-36.723-0.071-73.481-0.071-110.204 0-7.027-0.071-7.097-7.027-7.097-50.423 0-100.846 0-151.27 0-2.719 0-5.402-0.071-8.086-0.671-11.229-2.436-19.385-8.969-24.717-19.068-1.66-3.072-1.306-6.568-2.26-9.781 0-0.353 0-0.742 0-1.095 0.459-1.095 0.459-2.26 0-3.39 0-182.343 0-364.685 0-547.028 0.953-3.037 0.53-6.321 1.977-9.251 6.532-12.994 16.878-20.198 31.532-20.233 50.812-0.106 101.658-0.035 152.47-0.035 7.38 0 7.38 0 7.38-7.309 0-71.609 0-143.254 0-214.899 0-2.083-0.071-4.131 0.035-6.215 0.53-12.076 5.897-21.398 15.607-28.495 5.791-4.202 12.429-4.802 19.244-4.802 194.913 0 389.826 0 584.775 0 0.671 0 1.342 0 2.013-0.035 13.665-0.247 22.916 6.568 29.237 18.185 3.496 6.356 4.096 13.206 4.096 20.162 0.035 72.104 0 144.207 0 216.311 0 6.956 0.141 7.062 7.062 7.062 55.826 0 111.581 0 167.371 0 12.182 0.035 21.504 5.438 28.672 15.113 3.319 4.52 4.167 9.675 4.873 15.007 0 0.177 0 0.388 0 0.565-0.6 1.342-0.141 2.719-0.282 4.096zM267.017 892.345c170.090-0.035 340.25-0.035 510.34 0 2.648 0 3.496-0.565 3.46-3.319-0.106-27.295-0.106-54.625 0.035-81.885 0-2.648-0.812-3.213-3.319-3.213-85.133 0.071-170.302 0.071-255.435 0.071-84.886 0-169.772 0-254.623 0-3.672 0-3.672 0-3.672 3.602 0 27.189 0.035 54.343-0.071 81.567 0 2.542 0.706 3.178 3.284 3.178zM780.747 7.468c0-4.273 0.424-3.672-3.778-3.672-84.957 0-169.913 0-254.905 0-84.886 0-169.807 0-254.658 0-4.096 0-3.637-0.53-3.637 3.602 0 125.952 0 251.904 0 377.856 0 4.061-0.494 3.531 3.672 3.531 169.843 0.035 339.686 0.035 509.564 0 4.202 0 3.743 0.636 3.743-3.672 0-125.917 0-251.763 0-377.644zM987.524 266.434c-45.515 0.071-90.995 0.071-136.474 0-2.578 0-2.79 1.024-2.79 3.143 0.071 50.353 0.071 100.705 0.035 151.058 0 14.901-6.356 25.953-19.844 32.591-4.908 2.366-10.205 3.072-15.572 3.072-42.408-0.035-84.78-0.035-127.223-0.035-54.484 0-109.003 0-163.452 0-96.892 0-193.783 0-290.675 0-16.455 0-29.555-9.498-33.863-24.399-1.095-3.672-1.412-7.521-1.412-11.37 0.035-50.176 0-100.387 0.106-150.528 0-2.86-0.706-3.566-3.531-3.531-40.148 0.106-80.296 0.071-120.444 0-2.648 0-3.425 0.53-3.425 3.354 0.071 155.471 0.071 310.978 0 466.485 0 2.613 0.742 3.178 3.249 3.178 47.104-0.071 94.137-0.071 141.241 0 1.589 0 3.178-0.141 4.696-0.742 4.273-1.801 8.828-2.225 13.453-2.225 193.783 0 387.602 0 581.35 0 4.838 0 9.569 0.53 14.018 2.33 1.165 0.494 2.33 0.565 3.566 0.565 52.33 0 104.695 0 157.025 0.071 2.225 0 2.754-0.671 2.754-2.825-0.071-155.789-0.071-311.543 0-467.332 0-2.225-0.636-2.86-2.79-2.86zM795.012 631.225c-32.062 0-58.368-26.271-58.474-58.333-0.071-32.132 26.342-58.58 58.474-58.58 32.062 0 58.403 26.306 58.474 58.333 0.071 32.168-26.306 58.58-58.474 58.58zM406.952 232.925c77.93 0 155.86 0 233.825 0 1.095 0 2.225 0 3.39 0.071 20.939 1.024 35.946 21.045 31.038 41.419-3.743 15.572-16.984 25.953-33.404 25.988-39.3 0.035-78.636 0-117.901 0v0c-39.689 0-79.342 0.177-118.996-0.071-24.964-0.141-40.96-26.659-29.59-48.87 6.532-12.676 17.443-18.538 31.638-18.538zM641.483 144.543c-39.194 0.071-78.424 0.035-117.619 0.035 0-0.035 0-0.035 0-0.035-39.83 0-79.695 0.212-119.561-0.106-24.046-0.177-39.971-26.165-29.484-47.81 6.426-13.277 17.514-19.633 32.168-19.633 77.895 0 155.86 0 233.79 0 1.024 0 2.083 0 3.107 0.071 21.575 1.165 36.511 21.433 31.144 42.302-3.884 15.078-17.196 25.176-33.545 25.176z" />
<glyph unicode="&#xe905;" glyph-name="info" horiz-adv-x="964" d="M481.882-28.365c266.136 0 481.882 215.746 481.882 481.882s-215.746 481.882-481.882 481.882c-266.136 0-481.882-215.746-481.882-481.882s215.746-481.882 481.882-481.882zM439.236 363.646v39.755c0 10.601 0.602 19.637 1.807 27.106s3.373 14.215 6.505 20.239c3.132 6.024 7.228 11.806 12.288 17.348s11.204 12.167 18.432 19.878l55.657 56.38c12.047 12.047 18.071 27.708 18.071 46.984 0 18.794-6.144 34.093-18.432 45.899s-27.829 17.709-46.622 17.709c-20.239 0-36.864-6.867-49.875-20.6s-20.48-30.479-22.408-50.236l-92.521 7.228c2.891 23.13 8.915 43.731 18.071 61.801s21.082 33.37 35.78 45.899c14.697 12.529 31.684 22.046 50.959 28.552s40.478 9.758 63.608 9.758c21.685 0 41.803-3.132 60.356-9.397s34.695-15.3 48.429-27.106c13.734-11.806 24.455-26.503 32.166-44.092s11.565-37.707 11.565-60.356c0-15.902-2.168-29.877-6.505-41.924s-10.119-23.13-17.348-33.25c-7.228-10.12-15.541-19.757-24.937-28.913s-19.396-18.793-29.997-28.913c-6.746-6.265-12.529-11.806-17.348-16.625s-8.794-9.758-11.927-14.818c-3.132-5.060-5.421-10.842-6.867-17.348s-2.168-14.336-2.168-23.492v-27.467h-86.739zM424.779 263.174c0 15.42 5.662 28.672 16.986 39.755s24.937 16.625 40.84 16.625c15.42 0 28.913-5.301 40.478-15.902s17.348-23.612 17.348-39.032c0-15.42-5.662-28.672-16.986-39.755s-24.937-16.625-40.84-16.625c-7.71 0-15.059 1.446-22.046 4.337s-13.131 6.746-18.432 11.565c-5.301 4.819-9.517 10.601-12.649 17.348s-4.698 13.975-4.698 21.685z" />
<glyph unicode="&#xe906;" glyph-name="small-top-slim-arrow" horiz-adv-x="1593" d="M75.991 172.897l654.222 654.222c44.433 44.433 116.473 44.433 160.906 0l654.222-654.222c44.433-44.433 44.433-116.473 0-160.906s-116.473-44.433-160.906 0l-654.222 654.222h160.906l-654.222-654.222c-44.433-44.433-116.473-44.433-160.906 0s-44.433 116.473 0 160.906v0z" />
<glyph unicode="&#xe907;" glyph-name="360" horiz-adv-x="1956" d="M0 209.816c1.956 2.407 1.555 5.466 2.307 8.224 5.567 20.862 18.756 35.907 36.258 47.692 21.364 14.343 45.235 23.019 69.657 30.491 40.119 12.287 81.242 20.511 122.515 27.833 36.759 6.469 73.72 11.735 110.73 16.499 30.942 3.912 61.884 7.322 92.977 10.431 34.252 3.41 68.504 6.469 102.806 8.876 33.801 2.307 67.601 4.714 101.452 4.564 23.671-0.1 43.53-15.446 49.146-37.612 8.024-31.745-14.744-62.085-47.893-62.988-22.517-0.602-45.034-1.354-67.551-2.758-28.886-1.705-57.772-3.811-86.608-6.57-21.013-1.956-42.025-3.962-63.038-6.068-25.576-2.558-51.152-5.667-76.628-8.977-27.582-3.561-55.164-7.422-82.546-12.086-45.335-7.623-90.52-16.098-134.4-30.24-1.856-0.602-3.611-1.254-5.516-1.956 1.204-1.856 3.109-2.257 4.714-3.009 26.028-11.986 53.459-19.659 81.242-26.078 45.235-10.531 91.121-17.452 137.209-22.918 34.302-4.112 68.705-7.322 103.157-10.030 41.975-3.31 84-5.717 126.076-7.623 40.721-1.856 81.392-3.26 122.114-4.062 16.349-0.351 32.748-0.652 49.096-0.953 1.354-0.050 2.758 0 4.012 0 0.501 1.204-0.301 1.805-0.752 2.457-16.349 23.069-13.34 51.002 7.372 69.106 19.358 16.9 48.795 15.947 68.203-3.009 27.131-26.479 53.911-53.359 80.54-80.389 10.582-10.782 17.552-23.52 17.502-39.217 0-14.443-4.965-26.93-15.546-36.759-15.797-14.644-30.691-30.24-46.037-45.335-11.986-11.785-23.821-23.721-35.656-35.606-8.475-8.475-18.505-13.841-30.541-15.095-3.912-1.003-7.974 0.401-11.835-0.752-0.251 0-0.552 0-0.853 0-11.133 1.003-20.662 5.667-28.736 13.239-17.953 16.7-21.113 43.981-7.823 65.395 0.652 1.053 2.106 2.006 1.454 3.26-0.752 1.404-2.507 0.752-3.811 0.853-0.552 0.1-1.103 0.050-1.655 0.050-21.965-0.652-43.931 0.752-65.896 1.053-18.154 0.251-36.358 0.903-54.462 1.605-20.11 0.802-40.27 1.404-60.33 2.507-22.617 1.254-45.235 2.407-67.802 3.862-17.602 1.153-35.155 2.357-52.707 3.661-17.552 1.354-35.105 2.959-52.657 4.664-27.983 2.758-55.967 5.767-83.8 9.528-40.119 5.366-79.988 12.136-119.406 21.263-26.379 6.068-52.306 13.49-77.631 23.119-25.727 9.829-50.35 21.915-71.413 40.019-15.897 13.641-27.983 30.090-34.453 50.3-1.504 4.463-1.555 9.077-2.558 13.54 0 0.552 0 1.103 0 1.655 0.702 3.912 0.702 7.823 0 11.735 0 0.853 0 1.755 0 2.608zM1159.102-64c-0.401 1.053-1.304 0.802-2.106 0.953-11.233 2.156-20.561 7.522-28.585 15.647-23.721 23.821-47.592 47.441-71.413 71.162-2.808 2.808-5.667 5.366-8.576 8.024-18.555 17.201-22.016 43.73-8.425 64.943 3.009 4.764 6.319 9.227 10.331 13.239 26.228 26.128 52.456 52.456 78.785 78.534 21.715 21.514 54.161 20.762 74.221-1.454 15.346-17.001 16.8-43.279 3.51-62.135-0.853-1.204-2.257-2.156-2.307-3.862 1.504-0.853 3.109-0.401 4.564-0.401 40.721 0.301 81.443 1.555 122.164 2.959 40.571 1.354 81.092 3.26 121.612 5.817 38.114 2.407 76.227 5.216 114.19 9.227 61.333 6.319 122.415 14.142 182.594 28.334 26.98 6.369 53.56 13.891 78.735 25.676 1.354 0.652 3.009 0.953 4.012 2.608-12.236 4.513-24.673 8.024-37.161 11.233-42.978 11.033-86.608 18.656-130.439 25.426-37.462 5.717-75.023 10.481-112.686 14.694-30.039 3.36-60.079 6.219-90.169 8.826-40.019 3.46-80.089 6.168-120.158 8.024-10.481 0.501-21.013-0.301-31.494 1.003-23.871 2.808-43.028 23.771-43.68 47.842-0.702 25.325 16.8 47.341 41.022 51.353 12.086 2.006 24.272 0.903 36.459 0.451 19.458-0.752 38.866-1.856 58.274-3.059 27.231-1.705 54.412-3.811 81.593-6.419 23.971-2.307 47.893-4.463 71.814-7.121 26.128-2.909 52.205-6.068 78.333-9.428 28.936-3.761 57.822-8.024 86.658-13.139 50.651-8.927 101.151-18.756 149.696-36.208 19.709-7.071 38.665-15.647 55.114-28.886 15.346-12.337 26.028-27.682 29.337-47.391 0.301-1.655 0.401-3.31 0.602-5.015 0.652-3.811 0.15-7.573 0.301-11.434 0.201-16.299-6.82-30.14-15.747-42.978-14.393-20.762-34.352-35.004-56.318-46.689-28.485-15.145-58.875-25.225-89.918-33.45-49.698-13.189-100.349-21.564-151.351-28.234-28.836-3.761-57.772-6.87-86.708-9.579-18.756-1.805-37.612-3.109-56.418-4.614-18.956-1.454-37.913-2.658-56.869-3.811-12.989-0.802-25.977-1.354-38.916-2.056-15.496-0.853-30.992-1.053-46.488-2.207-7.773-0.602-15.647-0.652-23.47-0.802-14.092-0.251-28.184-0.953-42.376-1.204-26.83-0.602-53.61-1.605-80.49-1.555-3.761 0-3.962-0.451-1.956-3.711 12.838-21.163 11.434-43.881-4.664-62.586-8.375-9.729-19.007-15.998-32.447-15.998-3.862-0.251-7.773 0.602-11.635-0.401-0.401-0.15-0.652-0.15-0.953-0.15zM578.674 960c5.065 0 10.13 0 15.195 0 22.718-0.853 44.783-4.915 65.445-14.644 35.456-16.7 58.424-43.48 63.539-83.047 4.814-36.96-5.115-69.357-33.951-94.481-9.428-8.174-20.511-13.44-32.396-17.101-1.805-0.552-3.862-0.552-5.366-2.006 0.702-1.555 2.106-1.204 3.26-1.404 20.662-3.661 39.066-11.835 53.259-27.783 13.039-14.644 21.013-31.895 24.373-51.203 4.463-25.626 3.059-50.801-7.773-74.773-13.741-30.641-37.161-51.654-68.153-63.539-44.432-17.001-89.567-16.95-134.15-0.953-40.019 14.242-65.044 43.229-77.531 83.398-1.705 5.466-1.655 5.466 3.862 6.921 22.266 5.918 44.583 11.735 66.799 17.803 3.912 1.053 5.366 0.652 6.57-3.611 3.962-14.443 11.083-27.181 22.818-36.86 12.989-10.732 28.435-14.092 44.683-13.891 26.228 0.351 47.993 9.98 62.787 32.447 14.242 21.614 13.841 59.176-7.773 78.534-11.384 10.18-24.824 15.496-39.468 18.154-17.001 3.059-34.202 3.611-51.403 3.26-3.36-0.050-4.162 0.953-4.162 4.162 0.15 19.007 0.15 38.063 0 57.12 0 3.31 0.903 4.213 4.162 4.162 17.201-0.15 34.503-0.451 51.453 2.758 15.296 2.909 28.736 9.127 37.963 22.417 7.121 10.281 8.475 21.965 8.475 34.001 0 31.394-24.523 52.306-53.309 54.563-24.774 1.956-45.034-6.168-60.48-25.727-4.263-5.416-7.522-11.484-9.879-17.903-0.903-2.507-2.056-3.009-4.664-2.307-23.42 6.469-46.89 12.738-70.41 18.906-2.507 0.702-2.859 1.605-2.056 3.962 15.546 46.087 47.893 73.268 94.632 84.201 11.083 2.608 22.316 3.962 33.65 4.463zM1462.456 783.976c-2.708 30.14-8.826 59.427-20.662 87.31-12.387 28.986-30.591 53.259-58.073 69.758-20.511 12.337-43.028 17.653-66.649 18.956-4.814 0-9.579 0-14.343 0-3.912-0.351-7.823-0.652-11.685-1.003-19.358-1.906-37.512-7.422-54.312-17.201-27.983-16.299-46.488-40.671-59.126-69.908-13.239-30.641-19.508-62.937-21.614-96.086-2.307-36.358-2.056-72.717 4.062-108.774 5.165-30.24 13.791-59.327 30.29-85.605 16.7-26.579 39.468-45.837 69.407-55.967 23.52-7.974 47.592-9.478 72.115-6.419 17.653 2.207 34.352 7.472 49.798 16.399 26.178 14.995 44.432 37.211 57.12 64.191 17.251 36.86 23.721 76.177 25.125 116.397 0.752 22.668 0.552 45.335-1.454 67.952zM1391.795 738.691c-0.702-27.432-2.056-54.763-9.378-81.443-5.115-18.656-12.738-35.957-25.827-50.701-9.528-10.732-21.163-17.352-35.255-19.207-18.154-2.407-35.656-0.602-50.551 11.284-11.384 9.077-19.408 20.912-25.376 34.051-9.378 20.561-13.791 42.426-15.847 64.793-1.454 16.148-2.808 32.346-2.207 48.595 1.053 29.388 3.109 58.675 13.139 86.708 6.72 18.806 16.299 35.606 32.497 47.893 19.909 15.095 62.436 15.396 82.997-8.776 14.593-17.151 22.918-36.81 28.184-58.223 3.912-16.248 5.516-32.798 6.67-49.397 0.552-8.475 1.254-17.001 0.953-25.576zM1102.785 682.624c-4.564 37.010-20.31 68.253-50.049 91.222-34.754 26.93-73.619 33.299-115.594 20.21-0.752-0.201-1.555-0.953-2.207-0.050-0.652 0.853 0 1.555 0.501 2.257 0.451 0.702 0.903 1.404 1.354 2.106 28.986 44.683 57.973 89.416 86.959 134.099 4.263 6.519 8.475 13.089 13.139 20.26-1.354 0.1-1.906 0.201-2.457 0.201-27.582 0-55.164-0.050-82.696 0.050-2.859 0-3.862-1.504-5.115-3.41-29.989-47.191-59.928-94.481-89.968-141.622-15.998-25.125-32.296-50.099-43.63-77.782-18.906-46.037-19.207-91.974 2.056-137.359 11.133-23.771 28.936-41.624 51.704-54.563 18.054-10.281 37.562-16.349 58.223-18.906 26.529-3.31 52.707-2.207 78.434 5.516 43.229 13.039 74.020 40.069 90.72 82.295 9.528 24.373 11.835 49.698 8.626 75.475zM1031.322 659.003c-2.558-40.22-35.556-72.666-78.283-72.566-45.285 0.702-77.932 36.509-77.481 78.634 0.501 46.238 38.665 80.289 83.749 77.23 40.521-2.808 74.973-37.361 72.014-83.298z" />
<glyph unicode="&#xe908;" glyph-name="sign_in_key" horiz-adv-x="1053" d="M1052.827 432.784c0-1.354 0-2.757 0-4.111-2.206-55.098-12.734-108.491-32.086-160.080-20.505-54.897-49.583-104.781-87.335-149.552-45.773-54.346-100.37-97.612-163.99-129.398-44.269-22.109-90.844-37.35-139.575-45.923-25.569-4.512-51.288-6.969-77.257-7.671-7.821 0-15.642 0-23.513 0-24.817 0.702-49.483 2.958-73.949 7.119-39.255 6.718-77.257 17.698-113.906 33.239-60.813 25.819-114.608 62.117-161.484 108.742-11.681 11.631-15.843 25.719-11.23 41.562 4.562 15.642 15.341 25.418 31.234 28.827 13.687 2.958 26.12-0.501 36.297-10.127 15.642-14.94 31.635-29.379 48.982-42.264 48.38-35.896 101.974-60.462 160.682-73.898 37.701-8.623 75.904-12.082 114.508-10.177 88.989 4.462 169.555 32.888 240.396 87.084 80.266 61.365 132.706 141.33 157.523 239.343 7.32 29.078 11.28 58.758 12.082 88.788 2.607 94.704-22.36 181.437-76.606 259.046-57.956 82.822-135.915 138.672-232.976 167.349-27.474 8.122-55.499 13.085-84.076 15.391-25.067 1.955-50.085 1.955-75.001-0.401-63.019-5.916-122.028-24.666-176.725-56.602-31.535-18.349-60.162-40.459-86.031-66.077-7.27-7.219-15.642-11.782-25.869-13.135-21.407-2.858-42.715 13.336-45.572 34.743-1.855 14.339 2.507 26.421 12.684 36.548 59.41 58.808 128.896 100.821 208.66 125.888 29.93 9.425 60.513 15.843 91.696 19.553 15.241 1.755 30.582 2.757 45.973 3.409 1.805 0 3.66 0 5.465 0 7.169 0 14.288 0 21.458 0 45.673-1.053 90.393-8.072 134.16-21.057 59.008-17.547 113.204-44.72 162.085-82.020 85.881-65.526 145.892-149.602 179.281-252.428 10.278-31.585 17.046-63.972 20.956-96.96 1.604-13.586 2.657-27.223 3.058-40.86 0-1.855 0-3.71 0-5.515 0-7.37 0-14.79 0-22.16 0-2.056 0-4.111 0-6.217zM741.341 448.927c0 2.056-0.351 4.061-0.652 6.116-2.908 19.001-20.254 34.242-39.456 34.292-38.704 0.050-77.408 0.050-116.062 0.050-65.125 0-130.25 0-195.325-0.1-3.058 0-4.061 1.003-4.663 3.76-1.153 4.913-2.457 9.776-4.011 14.589-14.99 45.623-42.765 81.419-83.574 106.586-43.868 27.023-91.496 35.044-141.881 24.917-40.81-8.222-75.402-28.126-103.678-58.758-27.875-30.231-44.57-65.777-50.135-106.586-0.602-4.512-0.251-9.074-1.905-13.386 0-0.451 0-0.902 0-1.354 0.752-1.905 0.201-3.911 0.351-5.866 0-3.409 0-6.919 0-10.328-0.15-2.005 0.401-3.961-0.351-5.866 0-0.501 0-0.953 0-1.354 1.103-0.551 0.652-1.604 0.752-2.457 0.551-4.663 0.852-9.425 1.554-13.988 7.019-44.219 26.020-82.522 59.059-112.753 55.499-50.736 120.524-66.529 192.166-44.219 69.737 21.708 113.254 70.389 131.704 141.179 0.652 2.557 1.604 3.359 4.312 3.359 48.029-0.15 96.008-0.15 143.987 0 3.058 0 3.81-0.752 3.76-3.76-0.1-17.497-0.301-34.894 0.050-52.391 0.602-27.624 28.527-46.675 54.597-37.551 17.046 5.916 27.875 21.407 27.975 40.208 0.1 16.645 0.1 33.289-0.050 49.934-0.050 2.958 0.852 3.56 3.61 3.509 10.227-0.15 20.455-0.201 30.632 0.050 3.409 0.050 4.612-0.652 4.562-4.412-0.201-17.196-0.301-34.442 0-51.639 0.451-25.92 25.869-45.071 50.937-38.654 19.051 4.813 31.585 20.856 31.635 40.759 0.1 32.036 0.050 64.072 0.1 96.108zM195.174 335.573c-62.117 0.15-112.302 50.385-112.352 112.402-0.1 62.117 50.385 112.552 112.552 112.502 60.663 0.251 112.001-48.781 112.352-111.199 0.401-63.521-49.834-113.856-112.552-113.705z" />
<glyph unicode="&#xe909;" glyph-name="collect" horiz-adv-x="1121" d="M1021.727-60.773h-922.85c-54.514 0-98.877 44.655-98.877 99.527v431.285c0 54.873 44.363 99.527 98.877 99.527h922.85c54.514 0 98.877-44.655 98.877-99.527v-431.285c0-54.873-44.363-99.527-98.877-99.527zM98.877 503.215c-18.16 0-32.959-14.896-32.959-33.176v-431.285c0-18.28 14.799-33.176 32.959-33.176h922.85c18.16 0 32.959 14.896 32.959 33.176v431.285c0 18.28-14.799 33.176-32.959 33.176h-922.85zM230.713 221.619h-65.918c-18.226 0-32.959 14.863-32.959 33.176s14.733 33.176 32.959 33.176h65.918c18.226 0 32.959-14.863 32.959-33.176s-14.733-33.176-32.959-33.176zM402.099 221.619h-39.551c-18.226 0-32.959 14.863-32.959 33.176s14.733 33.176 32.959 33.176h39.551c18.193 0 32.959-14.863 32.959-33.176s-14.766-33.176-32.959-33.176zM758.055 221.619h-39.551c-18.193 0-32.959 14.863-32.959 33.176s14.766 33.176 32.959 33.176h39.551c18.226 0 32.959-14.863 32.959-33.176s-14.733-33.176-32.959-33.176zM580.077 221.619h-39.518c-18.226 0-32.959 14.863-32.959 33.176s14.733 33.176 32.959 33.176h39.518c18.226 0 32.959-14.863 32.959-33.176s-14.766-33.176-32.959-33.176zM955.809 221.619h-65.918c-18.226 0-32.959 14.863-32.959 33.176s14.733 33.176 32.959 33.176h65.918c18.226 0 32.959-14.863 32.959-33.176s-14.733-33.176-32.959-33.176zM758.055 87.523h-395.507c-18.226 0-32.959 14.863-32.959 33.176s14.733 33.176 32.959 33.176h395.507c18.226 0 32.959-14.863 32.959-33.176s-14.733-33.176-32.959-33.176zM955.809 87.523h-65.918c-18.226 0-32.959 14.863-32.959 33.176s14.733 33.176 32.959 33.176h65.918c18.226 0 32.959-14.863 32.959-33.176s-14.733-33.176-32.959-33.176zM230.713 87.523h-65.918c-18.226 0-32.959 14.863-32.959 33.176s14.733 33.176 32.959 33.176h65.918c18.226 0 32.959-14.863 32.959-33.176s-14.733-33.176-32.959-33.176zM230.713 355.683h-65.918c-18.226 0-32.959 14.863-32.959 33.176s14.733 33.176 32.959 33.176h65.918c18.226 0 32.959-14.863 32.959-33.176s-14.733-33.176-32.959-33.176zM402.099 355.683h-39.551c-18.226 0-32.959 14.863-32.959 33.176s14.733 33.176 32.959 33.176h39.551c18.193 0 32.959-14.863 32.959-33.176s-14.766-33.176-32.959-33.176zM758.055 355.683h-39.551c-18.193 0-32.959 14.863-32.959 33.176s14.766 33.176 32.959 33.176h39.551c18.226 0 32.959-14.863 32.959-33.176s-14.733-33.176-32.959-33.176zM580.077 355.683h-39.518c-18.226 0-32.959 14.863-32.959 33.176s14.733 33.176 32.959 33.176h39.518c18.226 0 32.959-14.863 32.959-33.176s-14.766-33.176-32.959-33.176zM955.809 355.683h-65.918c-18.226 0-32.959 14.863-32.959 33.176s14.733 33.176 32.959 33.176h65.918c18.226 0 32.959-14.863 32.959-33.176s-14.733-33.176-32.959-33.176zM417.524 630.643c-3.856 0-7.778 0.697-11.635 2.156-17.040 6.469-25.609 25.612-19.215 42.764 27.488 73.219 98.185 122.419 175.869 122.419 75.707 0 143.668-45.351 173.166-115.485 7.086-16.886-0.758-36.361-17.501-43.493-16.842-7.133-36.123 0.763-43.209 17.616-19.182 45.584-63.281 75.010-112.456 75.010-50.46 0-96.372-31.948-114.203-79.489-4.944-13.303-17.501-21.498-30.817-21.498zM268.945 687.042c-3.856 0-7.778 0.697-11.634 2.156-17.040 6.469-25.609 25.612-19.215 42.764 50.658 135.092 181.043 225.827 324.448 225.827 139.68 0 265.089-83.636 319.405-213.121 7.119-16.853-0.725-36.327-17.501-43.46-16.71-7.133-36.123 0.763-43.209 17.65-44.033 104.869-145.547 172.614-258.728 172.614-116.114 0-221.748-73.518-262.782-182.898-4.911-13.337-17.468-21.531-30.784-21.531z" />
<glyph unicode="&#xe90a;" glyph-name="mouse" horiz-adv-x="900" d="M279.494 763.553c13.234 109.020 102.72 193.586 210.721 193.586 117.084 0 212.348-99.388 212.348-221.576v-149.414c0-88.968 68.341-161.34 152.35-161.34 16.598 0 30.014-13.493 30.014-30.118s-13.416-30.118-30.014-30.118c-117.084 0-212.378 99.388-212.378 221.576v149.414c0 88.968-68.311 161.34-152.32 161.34-75.159 0-137.763-57.887-150.153-133.761 146.107-16.57 260.154-144.505 260.154-299.361v-223.774c0-166.069-131.16-301.176-292.364-301.176-161.234 0-292.364 135.108-292.364 301.176v223.774c0 156.217 116.033 285.037 264.007 299.772zM307.851 704.693c-128.129 0-232.337-108.092-232.337-240.941v-223.774c0-132.849 104.238-240.941 232.337-240.941s232.337 108.092 232.337 240.941v223.774c0 132.879-104.238 240.941-232.337 240.941zM308.452 407.341h-1.231c-49.643 0-90.041 40.538-90.041 90.353v67.373c0 49.815 40.399 90.353 90.041 90.353 50.873 0 91.272-40.538 91.272-90.353v-67.373c0-49.815-40.369-90.353-90.041-90.353zM308.452 595.215c-17.768 0-31.244-13.523-31.244-30.118v-67.373c0-16.595 13.476-30.118 30.014-30.118h1.231c16.538 0 30.014 13.523 30.014 30.118v67.373c0 16.595-13.476 30.118-30.014 30.118z" />
<glyph unicode="&#xe90b;" glyph-name="setup-cloud" horiz-adv-x="1121" d="M793.757 28.409v-53.145c0-17.696-14.344-32-32.017-32-17.642 0-32.017 14.336-32.017 32v53.127l-46.041-26.567c-4.995-2.912-10.566-4.288-15.945-4.288-11.078 0-21.836 5.728-27.759 16-8.869 15.328-3.618 34.88 11.686 43.712l46.057 26.576-46.057 26.576c-15.336 8.832-20.587 28.416-11.686 43.712 8.805 15.296 28.399 20.608 43.704 11.712l46.041-26.567v53.127c0 17.664 14.376 32 32.017 32 17.706 0 32.017-14.336 32.017-32v-53.145l46.073 26.585c15.272 8.864 34.835 3.584 43.704-11.712 8.805-15.328 3.618-34.88-11.686-43.712l-46.057-26.576 46.057-26.576c15.336-8.832 20.523-28.416 11.686-43.712-5.923-10.272-16.681-16-27.759-16-5.443 0-10.95 1.376-15.945 4.288l-46.073 26.585zM345.516 28.409v-53.145c0-17.696-14.344-32-32.017-32-17.642 0-32.017 14.336-32.017 32v53.127l-46.041-26.567c-4.995-2.912-10.566-4.288-15.945-4.288-11.078 0-21.836 5.728-27.759 16-8.869 15.328-3.618 34.88 11.686 43.712l46.057 26.576-46.057 26.576c-15.336 8.832-20.587 28.416-11.686 43.712 8.805 15.296 28.335 20.608 43.704 11.712l46.041-26.567v53.127c0 17.664 14.376 32 32.017 32 17.706 0 32.017-14.336 32.017-32v-53.145l46.073 26.585c15.272 8.864 34.899 3.584 43.704-11.712 8.805-15.328 3.618-34.88-11.686-43.712l-46.057-26.576 46.057-26.576c15.336-8.832 20.523-28.416 11.686-43.712-5.923-10.272-16.681-16-27.759-16-5.443 0-10.95 1.376-15.945 4.288l-46.073 26.585zM569.637 252.409v-53.145c0-17.696-14.344-32-32.017-32-17.642 0-32.017 14.336-32.017 32v53.127l-46.041-26.567c-4.995-2.912-10.566-4.288-15.945-4.288-11.078 0-21.836 5.728-27.759 16-8.869 15.328-3.618 34.88 11.686 43.712l46.057 26.576-46.057 26.576c-15.336 8.832-20.587 28.416-11.686 43.712 8.805 15.296 28.335 20.576 43.704 11.712l46.041-26.567v53.127c0 17.664 14.376 32 32.017 32 17.706 0 32.017-14.336 32.017-32v-53.145l46.073 26.585c15.272 8.864 34.835 3.584 43.704-11.712 8.805-15.328 3.618-34.88-11.686-43.712l-46.057-26.576 46.057-26.576c15.336-8.832 20.523-28.416 11.686-43.712-5.923-10.272-16.681-16-27.759-16-5.443 0-10.95 1.376-15.945 4.288l-46.073 26.585zM815.321 717.467c1.057 0.055 2.12 0.163 3.186 0.325 11.27 1.696 20.587 2.464 29.328 2.464 104.985 0 190.407-85.312 190.407-190.176 0-104.928-85.422-190.272-190.407-190.272-17.706 0-32.017-14.336-32.017-32s14.312-32 32.017-32c140.332 0 254.441 114.080 254.473 254.304 0 140.16-114.109 254.176-254.441 254.176-4.149 0-8.338-0.12-12.631-0.375-1.156-0.057-2.31-0.122-3.464-0.195-60.581 104.81-170.837 169.018-292.872 169.018-147.696 0-276.597-94.752-321.613-233.344-114.75-8.576-205.551-104.672-205.551-221.504 0-122.464 99.734-222.080 222.296-222.080 17.642 0 32.017 14.336 32.017 32s-14.376 32-32.017 32c-87.279 0-158.261 70.912-158.261 158.080 0 87.136 70.854 158.016 159.894 158.016h0.256l4.739-0.256c16.265-1.376 28.335 9.76 31.889 24.352 30.256 122.88 139.755 208.736 266.319 208.736 91.496 0 174.84-44.54 225.708-118.509-41.454-14.346-78.967-39.322-108.461-73.075-11.622-13.312-10.246-33.536 3.074-45.152 13.383-11.616 33.586-10.272 45.208 3.072 28.908 33.17 68.176 55.003 110.924 62.395z" />
<glyph unicode="&#xe90c;" glyph-name="smartphone" horiz-adv-x="780" d="M0 862.741c0 53.714 43.529 97.259 97.351 97.259h573.955c53.765 0 97.351-44 97.351-97.259v-829.483c0-53.714-43.529-97.259-97.351-97.259h-573.955c-53.765 0-97.351 44-97.351 97.259v829.483zM97.524 862.741v-829.483c0 0.395 0.13 0.265-0.173 0.265h573.955c-0.046 0-0.173-0.126-0.173-0.265v829.483c0-0.395-0.13-0.265 0.173-0.265h-573.955c0.046 0 0.173 0.126 0.173 0.265zM380.889 149.46c-48.777 0-88.318 39.541-88.318 88.318s39.541 88.318 88.318 88.318c48.777 0 88.318-39.541 88.318-88.318s-39.541-88.318-88.318-88.318z" />
<glyph unicode="&#xe90d;" glyph-name="sign_in" horiz-adv-x="2220" d="M2220.41 458.907c-1.216 1.622-0.568 3.406-0.73 5.109-0.568 7.461-0.649 15.165-3.568 21.977-14.597 34.060-39.737 55.713-76.068 63.823-13.786 3.082-27.735 1.379-41.602 1.298-109.723-0.162-219.284 0-329.007-0.081-244.991 0-490.064 0-735.055 0-2.676 0-5.271 0-7.947 0-8.11 0.162-10.056 1.703-11.84 9.569-10.137 44.116-25.545 86.286-46.711 126.591-30.573 58.308-71.202 108.507-120.833 151.569-36.088 31.465-76.311 57.173-120.022 77.203-61.471 28.14-125.456 45.171-193.576 43.954-2.838 0-5.596 0-8.434 0-8.839 0-17.76 0-26.6 0-2.595 0-5.271 0-7.947 0-18.247-0.081-36.493-0.324-54.497-2.676-35.115-4.541-69.256-13.867-102.505-26.032-38.764-14.273-75.176-33.249-109.317-56.362-37.872-25.545-71.608-55.956-101.613-90.503-25.626-29.438-47.603-61.39-65.769-95.937-17.841-33.736-31.952-68.932-41.683-105.83-5.758-21.572-10.948-43.305-12.651-65.607-0.892-13.138-0.73-26.356-2.433-39.494 0-1.298 0-2.595 0-3.974 1.379-3.812 0.324-7.704 0.649-11.516 0-9.245 0-18.571 0-27.816 0-2.676 0-5.352 0-8.11 0-2.19 0-4.46 0-6.569 0.243-16.381 0.405-32.844 2.676-49.144 7.785-55.064 25.221-106.885 50.361-156.434 21.977-43.305 49.793-82.475 82.718-117.914 26.843-28.951 56.929-54.253 89.773-76.149 33.006-21.977 68.040-40.224 105.263-54.172 48.739-18.247 98.613-29.6 150.92-29.032 2.19 0 4.379 0 6.569 0 2.757 0 5.433 0 8.11 0 9.245 0 18.409 0 27.654 0 2.271 0 4.541 0 6.731 0 2.433-0.324 5.028 0.73 7.38-0.649 1.298 0 2.676 0 3.974 0 5.596 1.216 11.435 1.216 17.030 1.216 28.384 0.162 55.875 5.352 83.123 12.57 45.981 12.246 89.449 30.573 130.484 54.74 46.711 27.41 87.746 61.795 123.753 102.1 24.41 27.248 45.495 56.929 63.498 88.881 18.247 32.276 32.682 66.093 43.63 101.532 3.974 12.894 7.461 25.951 10.38 39.088 1.298 5.515 4.46 8.434 10.299 8.11 1.784-0.081 3.568 0.081 5.352 0.081 215.634 0 431.269 0 646.903-0.081 2.433 0 4.947 0.081 7.299-0.081 4.217-0.324 6.488-2.514 6.812-6.731 0.243-2.919 0.162-5.758 0.162-8.596 0-62.444 0-124.726-0.081-187.17 0-7.785 0.892-15.408 2.352-23.031 9.164-46.955 54.010-83.853 103.803-82.556 54.74 1.46 100.559 46.306 100.64 101.046 0.081 64.552 0 129.186 0 193.738 0 12.651 0.811 13.381 13.624 13.381 29.195 0.081 58.47 0.081 87.584 0.081 15.814-0.081 15.652-0.081 15.814-15.895 0.73-50.604-1.46-101.289 1.216-151.893 1.703-31.709 15.733-56.767 40.305-75.987 34.141-26.681 81.258-28.87 118.076-5.028 25.14 16.219 42.413 38.277 44.441 69.662 0.081 1.865-0.324 4.055 0.973 5.758 0 2.676 0 5.271 0 8.029-1.379 2.433-0.649 5.19-0.649 7.785-0.081 82.961-0.081 165.923-0.081 248.803 0.405 6.974-0.811 13.867 0.73 20.761 0.162 0.811 0.162 1.703 0.162 2.595zM512.446 136.956c-170.707-0.892-310.436 138.593-311.328 310.76-0.811 170.545 138.269 310.355 309.949 311.247 170.869 0.892 308.571-137.539 311.977-304.516 3.487-171.437-134.376-316.761-310.598-317.491z" />
<glyph unicode="&#xe90e;" glyph-name="user" d="M1023.953 433.152c0 2.793 0 5.585 0 8.378 0 4.329 0 8.704 0 12.986 0 2.793 0.047 5.585 0.047 8.378 0 1.489 0 2.979 0 4.561-1.257 32.070-5.213 63.86-12.614 95.185-25.553 108.497-80.384 199.54-164.399 272.71-60.23 52.457-129.35 88.483-206.708 108.591-37.19 9.635-75.031 14.801-113.431 16.058-2.048 0-4.049 0-6.097 0-7.354 0-14.755 0-22.156 0-21.504-0.559-42.961-2.42-64.279-5.679-41.379-6.377-81.408-17.501-119.994-33.792-74.612-31.418-138.38-77.871-191.162-139.311-40.774-47.337-71.773-100.492-93.044-159.279-18.572-51.34-28.486-104.448-30.115-159.046 0-2.56 0-5.073 0-7.633 0-5.353 0-10.705 0-16.058 0-2.327 0-4.608 0-6.842 0.559-19.13 2.141-38.214 4.887-57.204 6.516-45.521 18.758-89.46 37.283-131.537 40.774-92.579 103.191-167.145 187.485-223.092 79.36-52.689 166.959-80.477 262.097-84.527 2.281 0 4.561 0 6.796 0 7.913 0.047 15.825 0.047 23.738 0.047 2.048 0 4.049 0 6.097 0 1.536-0.047 3.072-0.047 4.561-0.047 16.849 0.838 33.652 2.281 50.316 4.608 40.588 5.585 79.919 15.919 117.946 31.092 75.078 30.068 139.543 75.264 193.396 135.587 43.706 48.966 76.753 104.355 99.142 166.028 18.339 50.409 28.207 102.447 30.208 156.020 0.047 1.257 0.047 2.513 0 3.817zM815.988 157.463c0 4.701-0.326 8.937 0.047 13.172 2.793 33.606-12.893 57.809-38.865 76.893-21.364 15.639-45.242 26.345-69.865 35.607-20.34 7.587-40.541 15.22-59.159 26.624-4.655 2.886-9.030 6.097-13.219 9.542-15.407 12.614-21.271 29.463-22.016 48.64-0.047 2.048 0.093 4.096-0.14 6.097-0.931 9.030 1.815 16.756 7.168 24.111 12.241 16.71 18.106 36.073 22.528 55.994 0.465 2.001 0.372 4.236 2.839 5.399 14.289 6.796 21.783 18.851 25.367 33.699 3.398 14.15 5.725 28.346 2.327 42.868-1.489 6.237-3.817 12.102-7.54 17.315-1.257 1.769-1.536 3.398-1.257 5.585 4.282 33.978 5.772 68.003-1.117 101.841-3.677 17.827-9.728 34.63-22.156 48.5-13.917 15.546-31.511 24.343-51.759 28.207-3.956 0.791-8.006 1.117-12.055 1.629-0.977 0.093-1.955 0.233-2.839 0.931-12.893 10.705-28.3 15.5-44.497 18.060-35.747 5.585-69.818-1.117-102.772-14.895-20.48-8.564-38.214-20.852-51.712-38.819-12.521-16.617-19.223-35.468-22.016-55.901-3.072-22.342-0.977-44.497 2.746-66.607 1.35-8.239 2.607-16.477 3.91-24.762 0.14-1.071 0.047-1.955-0.605-2.886-9.728-14.383-11.357-30.301-8.89-47.011 1.024-7.261 2.513-14.476 5.073-21.364 4.236-11.59 11.497-20.48 22.575-26.065 2.56-1.257 3.631-3.025 4.143-5.725 4.003-21.504 10.938-41.844 24.25-59.625 3.491-4.655 4.887-9.868 4.841-15.686-0.093-10.007-0.372-20.015-2.886-29.789-4.096-16.105-14.569-27.276-27.834-36.212-17.827-11.962-37.562-19.921-57.577-27.276-24.623-9.123-48.78-19.177-70.656-34.071-13.405-9.169-25.367-19.828-33.978-33.839-6.889-11.171-10.193-23.366-10.287-36.445-0.047-7.727 0-15.407 0-23.924-146.385 148.294-167.238 412.532 5.353 587.078 169.146 171.055 448.233 166.028 610.63-14.243 163.235-181.201 128.791-435.945-8.099-572.649z" />
<glyph unicode="&#xe90f;" glyph-name="name" horiz-adv-x="1074" d="M1066.392 240.021c-77.116 77.067-154.232 154.184-231.349 231.202-2.051 2.051-2.1 2.979-0.049 5.030 31.501 31.306 62.807 62.758 94.307 94.112 3.956 4.005 6.496 8.547 7.814 14.017 12.552 51.232 25.201 102.415 37.752 153.646 15.775 64.272 31.599 128.543 47.373 192.815 3.468 14.163-4.786 26.666-19.145 29.157-2.002 0-4.054 0-6.056 0-1.026-0.195-2.002-0.342-2.979-0.586-43.759-10.745-87.421-21.44-131.181-32.234-72.086-17.68-144.123-35.408-216.209-53.088-5.030-1.221-9.328-3.614-13.040-7.277-14.212-14.261-28.522-28.522-42.734-42.734-17.435-17.435-34.968-34.92-52.355-52.404-1.465-1.514-2.295-1.709-3.907-0.049-30.768 30.817-61.586 61.537-92.305 92.403-13.089 13.186-26.666 25.738-42.343 35.799-26.666 17.094-55.676 27.789-87.128 31.794-22.515 2.881-44.932 2.247-67.153-2.198-42.392-8.498-78.63-28.375-109.154-58.997-42.392-42.783-85.077-85.37-127.713-127.957-0.928-0.928-1.856-1.856-2.735-2.784-8.4-9.182-8.107-23.15 0.733-31.989 77.116-77.116 154.232-154.232 231.398-231.3 2.1-2.1 2.149-3.077 0-5.226-75.895-75.798-151.742-151.595-227.637-227.49-11.331-11.282-11.282-24.664 0.049-35.994 30.573-30.573 61.146-61.146 91.67-91.719 56.067-56.067 112.182-112.182 168.249-168.249 2.833-2.881 5.812-5.47 9.621-6.789 10.061-3.419 18.559-1.026 25.982 6.496 75.846 75.895 151.693 151.693 227.539 227.539 2.881 2.881 2.881 2.881 5.714 0.049 76.921-76.921 153.793-153.793 230.714-230.811 4.444-4.444 9.377-7.472 15.677-8.205 1.563 0 3.175 0 4.835 0 6.154 0.83 11.086 3.809 15.384 8.156 54.846 54.943 109.74 109.789 164.586 164.684 31.892 31.892 63.832 63.832 95.724 95.675 2.979 3.028 5.519 6.251 6.837 10.305 3.077 9.817 0.342 18.021-6.789 25.201zM664.841 830.773c64.565 15.873 129.129 31.696 193.645 47.618 1.954 0.488 3.175 0.244 4.689-1.221 25.494-25.64 51.134-51.232 76.726-76.774 1.514-1.514 1.856-2.784 1.367-4.884-14.456-58.509-28.864-117.017-43.222-175.477-1.123-4.591-2.295-9.231-3.565-14.407-2.881 4.786-5.372 9.035-8.351 12.991-15.824 21.147-36.482 35.164-62.025 42.001-2.149 0.537-3.126 1.416-3.809 3.663-11.965 41.513-38.729 68.325-80.242 80.34-2.149 0.635-3.126 1.465-3.761 3.712-10.891 38.241-34.968 64.223-72.281 77.946-1.123 0.391-2.247 0.83-3.468 1.27 0.928 1.856 2.393 2.735 4.298 3.223zM572.145 739.64c13.821 13.626 27.594 27.35 41.22 41.22 3.077 3.175 6.203 5.372 10.793 4.982 1.074-0.098 2.198 0.147 2.442 0.147 33.601 0.244 62.367-24.664 66.372-56.946 0.977-7.57 1.026-15.238 1.416-22.856 0.098-2.344 0.586-3.321 3.321-3.468 8.986-0.537 17.973-0.488 26.91-2.149 25.591-4.689 47.178-26.324 51.818-51.964 1.612-9.035 1.416-18.168 2.149-27.252 0.147-1.905 0.733-2.491 2.588-2.588 7.521-0.391 15.042-0.879 22.563-1.465 25.25-2.002 49.815-23.345 55.334-47.911 0.488-2.149 0.098-3.565-1.514-5.177-18.559-18.412-37.069-36.922-55.53-55.53-1.612-1.661-2.442-1.954-4.298-0.098-75.163 75.26-150.374 150.521-225.635 225.635-2.393 2.247-2.051 3.37 0.049 5.421zM362.725 69.525c-24.175-24.175-48.399-48.35-72.477-72.574-1.807-1.807-2.54-0.781-3.712 0.44-22.563 22.563-45.127 45.127-67.69 67.739-52.795 52.746-105.54 105.54-158.384 158.286-1.758 1.709-2.051 2.588-0.098 4.493 23.833 23.687 47.618 47.471 71.304 71.304 1.709 1.709 2.637 1.807 4.395 0.049 75.358-75.505 150.765-150.911 226.221-226.367 0.586-0.635 1.172-1.27 1.807-1.954-0.537-0.586-0.928-1.026-1.367-1.416zM502.11 208.862c-9.084-9.035-18.119-18.070-27.154-27.105-25.25-25.298-50.499-50.45-75.651-75.798-1.709-1.709-2.54-2.051-4.493-0.098-75.26 75.309-150.521 150.618-225.879 225.83-1.758 1.758-2.051 2.686-0.098 4.64 34.285 34.138 68.472 68.325 102.659 102.61 1.612 1.612 2.442 1.709 4.151 0.049 75.456-75.553 150.96-151.058 226.465-226.562 0.537-0.586 1.026-1.123 1.661-1.758-0.586-0.635-1.123-1.221-1.661-1.807zM1015.844 219.557c-75.309-75.212-150.57-150.472-225.781-225.781-1.612-1.612-2.344-1.465-3.858 0.049-26.91 26.959-53.82 53.918-80.779 80.73-1.661 1.661-1.612 2.54 0 4.151 20.903 20.805 41.708 41.659 62.513 62.416 7.472 7.423 10.11 16.068 6.398 26.031-5.714 15.384-25.396 19.78-37.508 8.449-5.958-5.568-11.526-11.428-17.289-17.24-15.628-15.58-31.306-31.257-46.885-46.934-1.612-1.612-2.491-1.661-4.102 0-21.342 21.391-42.734 42.831-64.174 64.076-1.758 1.758-1.367 2.637 0.147 4.151 41.366 41.269 82.586 82.537 123.904 123.855 7.375 7.326 9.719 16.019 5.958 25.787-5.861 15.286-25.445 19.633-37.313 8.303-9.524-9.133-18.705-18.559-28.033-27.887-32.38-32.38-64.76-64.76-97.091-97.189-1.856-1.856-2.686-1.856-4.542-0.049-21.245 21.391-42.538 42.685-63.93 63.979-1.612 1.612-1.661 2.442-0.049 4.054 21.147 21.001 42.148 42.001 63.148 63.1 10.158 10.207 9.963 25.005-0.244 34.285-8.351 7.619-21.245 8.010-29.987 0.879-1.27-1.074-2.54-2.247-3.712-3.419-20.61-20.61-41.22-41.22-61.781-61.879-1.661-1.709-2.491-1.954-4.298-0.098-12.845 12.991-25.738 25.884-38.729 38.729-1.758 1.758-1.807 2.637 0 4.347 41.269 41.22 82.44 82.44 123.708 123.611 7.472 7.472 9.963 16.166 6.154 26.080-5.909 15.286-25.494 19.584-37.362 8.205-8.254-7.912-16.166-16.068-24.273-24.126-33.601-33.65-67.3-67.3-100.852-100.998-1.905-1.954-2.735-1.758-4.493 0-110.815 110.913-221.63 221.727-332.542 332.494-1.856 1.856-1.905 2.686 0 4.542 37.362 37.215 74.674 74.528 111.938 111.841 23.931 23.931 52.355 39.413 85.614 45.859 10.158 2.002 20.366 2.979 30.72 2.93 43.271-0.635 81.219-14.993 112.329-45.273 36.238-35.31 71.744-71.304 107.494-107.054 76.335-76.286 152.67-152.67 229.004-229.004 93.477-93.526 187.003-187.101 280.529-280.578 2.198-2.149 2.295-3.223 0.049-5.421zM286.097 768.943c-34.334 0.049-62.465-28.082-62.367-62.416 0.049-34.334 27.789-61.976 62.074-61.927 34.236 0 62.22 27.985 62.269 62.22 0 34.285-27.692 62.074-61.976 62.123zM285.608 690.997c-8.693 0-15.531 7.033-15.482 15.824 0.049 8.693 7.326 15.775 16.068 15.726 8.644-0.049 15.58-7.13 15.482-15.873-0.098-8.693-7.277-15.726-16.068-15.677z" />
<glyph unicode="&#xe910;" glyph-name="personalize" horiz-adv-x="859" d="M794.957 569.412c-244.152 0-488.186 0-732.26 0-1.171 0-2.342 0-3.514-0.039-12.219-0.664-22.135-9.877-23.502-22.018-0.664-5.817 0.547-11.634 1.054-17.451 1.718-19.012 3.631-38.063 5.505-57.075 1.054-10.619 1.601-21.472 3.435-31.934 9.252-52.859 55.202-91.859 108.763-92.64 39.195-0.625 78.43-1.015 117.664-1.523 18.622-0.234 37.204-0.39 55.787-0.508 2.225 0 3.162-0.547 3.474-2.811 0.664-4.568 0.703-9.135 0.547-13.742-0.586-21.237-4.724-41.967-8.745-62.658-7.339-38.063-15.928-75.814-21.55-114.19-4.568-31.114-7.339-62.307-4.88-93.655 1.21-15.186 3.943-30.099 8.979-44.544 6.324-18.075 15.772-34.042 29.865-47.159 18.739-17.412 41.46-25.961 66.406-29.631 4.216-0.664 8.628-0.39 12.727-1.874 0.429 0 0.82 0 1.249 0 1.718 0.781 3.514 0.195 5.27 0.351 2.303-0.195 4.607 0.429 6.871-0.351 0.468 0 0.859 0 1.288 0 2.264 0.781 4.568 0.156 6.871 0.351 1.523-0.156 3.123 0.429 4.607-0.351 0.429 0 0.82 0 1.249 0 0.351 0.82 1.054 0.664 1.679 0.703 9.487 0.664 18.934 2.108 28.264 4.411 30.919 7.886 55.045 24.946 70.817 52.976 11.36 20.222 16.396 42.24 18.505 65.078 2.186 23.267 1.054 46.496-1.327 69.685-3.045 28.655-8.159 57.153-13.625 85.457-6.481 34.081-14.405 67.889-17.841 102.517-0.82 8.511-1.171 17.021-0.039 25.454 0.351 2.85 1.405 3.826 4.411 3.748 13.39-0.234 26.781-0.234 40.093-0.312 44.388-0.234 88.658-0.468 133.007-0.742 24.4-0.117 46.535 6.871 65.898 21.667 23.502 17.841 38.063 41.304 42.006 70.661 2.459 18.817 2.928 37.946 4.411 56.88 1.015 13.469 2.069 26.898 2.928 40.367 0.508 6.051 1.523 12.141-0.586 18.036-3.709 10.736-13.039 16.865-25.766 16.865zM765.443 449.366c-1.991-27.327-21.433-48.916-48.37-53.718-3.787-0.703-7.574-0.82-11.439-0.82-43.216 0.234-86.511 0.508-129.767 0.742-15.577 0.078-31.27 0.312-46.886 0.234-17.997-0.078-32.285-7.144-41.733-22.916-4.568-7.652-6.871-16.162-8.003-25.024-2.42-18.544-0.468-36.892 2.264-55.202 5.192-35.994 13.39-71.325 19.832-107.046 6.090-33.652 11.556-67.499 11.556-101.775-0.078-17.646-1.601-35.135-7.339-52.117-7.925-23.58-24.087-37.946-48.409-43.021-19.637-4.060-39.313-4.060-58.793 0.508-24.361 5.7-39.508 21.237-46.574 44.973-5.544 18.583-6.402 37.595-5.934 56.724 0.625 27.171 4.685 53.991 9.369 80.616 5.973 33.847 13.742 67.382 19.832 101.19 4.099 22.721 7.847 45.481 6.598 68.748-0.547 10.384-2.538 20.378-7.457 29.709-8.472 15.967-22.018 24.243-39.898 24.712-21.159 0.547-42.28 0.39-63.439 0.664-38.376 0.508-76.751 0.937-115.127 1.483-29.436 0.468-55.084 21.472-60.589 50.126-1.601 8.315-2.030 16.865-2.85 25.297-1.444 14.562-2.694 29.162-4.177 43.763-0.195 1.991 0.156 2.733 2.225 2.459 0.742-0.117 1.483 0 2.225 0 112.238 0 224.515 0 336.792 0 112.472 0 224.944 0 337.416 0.039 3.084 0.039 3.904-0.508 3.592-3.904-1.835-22.135-3.318-44.271-4.919-66.445zM858.825 938.216c-2.42 13-10.931 20.691-24.321 21.823-1.249-0.039-2.459-0.078-3.865-0.078-267.536 0-534.994 0-802.491 0-1.288-0.039-2.538 0-3.826 0.039-13.508-1.093-22.487-9.369-24.321-22.409 0-1.718 0-3.435 0-5.153 0.547-6.129 1.054-12.258 1.601-18.387 1.64-18.348 3.24-36.619 4.841-54.928 1.601-18.192 3.123-36.463 4.724-54.616 1.796-20.73 3.67-41.421 5.465-62.19 1.601-18.192 3.123-36.424 4.685-54.616 2.069-23.775 4.138-47.628 6.246-71.442 0.508-5.778 0.664-11.712 3.943-16.904 5.583-8.823 13.664-12.219 23.97-12.18 249.344 0.039 498.61 0 747.914 0 1.249 0 2.538 0 3.826 0.039 12.336 0.508 22.487 10.345 23.541 22.643 1.444 17.646 3.045 35.331 4.568 52.976 2.889 32.793 5.778 65.586 8.745 98.418 2.225 25.688 4.294 51.376 6.598 77.142 2.616 31.388 5.465 62.697 8.198 94.007 0 1.952-0.039 3.904-0.039 5.817zM799.954 829.453c-2.42-27.991-4.997-55.904-7.378-83.817-2.030-23.189-3.982-46.379-6.012-69.568-1.015-12.219-2.186-24.517-3.201-36.775-0.078-1.757-0.742-2.499-2.459-2.381-0.82 0.078-1.679 0-2.538 0-116.22 0-232.401 0-348.621 0-116.61 0-233.26 0-349.87 0-4.255 0-4.138 0-4.49 4.294-1.601 18.583-3.279 37.087-4.88 55.592-1.366 15.46-2.694 30.919-4.021 46.379-1.64 18.7-3.318 37.478-4.919 56.178-1.601 18.309-3.162 36.619-4.724 54.928-1.562 17.802-3.045 35.565-4.724 53.328-0.195 2.42 0.547 2.577 2.459 2.577 51.688-0.039 103.337-0.039 155.025 0.039 2.577 0 2.889-0.898 2.889-3.162-0.039-36.033-0.078-72.066-0.039-108.139 0-11.946 6.91-21.511 17.49-24.634 16.396-4.841 32.129 6.988 32.207 24.478 0.117 19.793 0.039 39.547 0.039 59.34 0 16.357 0.039 32.754-0.039 49.111 0 2.42 0.547 3.045 2.967 3.006 19.481-0.078 38.922-0.117 58.364 0 3.045 0 3.865-0.664 3.865-3.787-0.078-60.901-0.039-121.842-0.078-182.704 0-5.036 0.664-9.721 3.123-14.132 5.387-9.643 16.592-14.679 27.132-12.18 11.243 2.655 18.895 11.907 19.481 23.502 0.039 1.249 0.039 2.499 0.039 3.787 0 60.589 0 121.178-0.039 181.806 0 2.772 0.508 3.748 3.553 3.709 32.129-0.117 64.22-0.117 96.31 0 3.084 0 3.592-0.976 3.592-3.748-0.078-35.838-0.078-71.637-0.078-107.475 0.078-12.102 7.027-21.706 17.763-24.751 16.396-4.646 31.856 7.144 31.934 24.478 0.117 17.88 0.039 35.721 0.039 53.601 0 18.192 0.078 36.385-0.039 54.499-0.039 2.577 0.508 3.396 3.24 3.396 19.559-0.117 39.117-0.117 58.676 0 2.811 0 3.24-0.859 3.24-3.435-0.039-61.214-0.039-122.466-0.039-183.719 0-12.532 6.832-22.057 17.88-25.258 15.655-4.529 31.192 6.871 31.817 23.424 0.078 2.108 0 4.255 0 6.363 0 59.652 0.078 119.304-0.078 178.917 0 3.201 0.859 3.748 3.943 3.748 51.493-0.078 103.142-0.078 154.674 0 3.006-0.039 3.514-0.703 3.24-3.709-2.381-25.688-4.45-51.415-6.715-77.103zM429.432 138.38c-35.877 0-65.039-28.967-65.078-64.649 0-35.643 29.162-64.883 64.883-64.922 35.877-0.078 65.235 29.123 65.235 64.883-0.039 35.643-29.201 64.688-65.039 64.688zM429.276 58.544c-8.276 0.039-15.264 7.105-15.147 15.303 0.117 8.276 7.066 14.874 15.538 14.796 8.237-0.117 15.030-6.91 14.991-15.069 0.039-8.198-7.066-15.108-15.381-15.030z" />
<glyph unicode="&#xe911;" glyph-name="select" horiz-adv-x="874" d="M874.331 40.045c-1.033 4.014-1.033 8.187-3.974 11.684-5.842 6.875-12.996 10.532-22.136 10.532-24.68-0.079-49.32-0.040-74-0.040-1.272 0-2.544 0-3.855 0.040-2.464 0.119-3.736 1.431-3.855 3.855-0.119 1.947-0.079 3.895-0.079 5.802 0 252.006 0 504.052 0 756.057 0 2.464 0.199 4.968-0.040 7.392-1.311 14.426-8.465 26.429-23.806 29.807-14.069 3.1-27.979 6.518-42.008 9.737-36.126 8.386-72.251 16.851-108.417 25.236-45.545 10.571-91.050 21.183-136.594 31.794-33.105 7.71-66.33 15.38-99.515 23.17-9.26 2.186-18.52 4.65-28.138 4.888-2.146 0-4.332 0-6.518 0-9.379 0.119-15.698-4.61-20.030-12.559-2.345-4.372-3.299-9.061-3.299-13.95-0.040-15.341 0-30.681 0-46.022 0-6.955 0.040-13.95 0-20.904-0.040-3.974-1.033-4.928-4.968-5.047-1.391-0.040-2.782 0-4.173 0-39.703 0-79.365 0-119.068 0-11.605 0-23.17 0.159-34.735-0.040-11.287-0.238-19.275-5.802-24.481-15.619-2.424-4.65-2.464-9.697-2.464-14.744 0-252.483 0-504.926 0-757.369 0-1.629 0-3.219 0-4.849 0-6.041-0.636-6.677-6.597-6.716-13.393 0-26.826 0-40.219 0-12.241 0-24.442 0.159-36.682-0.040-13.274-0.238-23.17-9.3-24.6-22.375-0.238-2.345-0.079-4.69-0.079-7.074 0.079-9.777 4.888-16.533 13.433-20.944 4.531-2.345 9.339-2.861 14.347-2.861 87.075 0 174.151 0 261.226 0 1.709 0 3.418 0.040 5.166-0.040 2.265-0.159 3.537-1.351 3.736-3.656 0.159-1.311 0.159-2.583 0.159-3.855 0-13.075 0-26.19 0-39.265 0.040-12.718 9.379-27.025 26.468-25.991 7.948 0.437 15.738 1.51 23.408 3.378 28.694 6.875 57.428 13.512 86.122 20.229 40.935 9.538 81.869 19.116 122.804 28.694 25.157 5.842 50.393 11.605 75.431 17.725 8.545 2.106 17.049 2.861 25.753 2.861 61.998-0.119 123.956-0.079 185.994-0.079 2.146 0 4.252-0.040 6.399 0.040 7.472 0.358 13.433 3.736 18.599 9.022 3.497 3.577 4.213 8.028 5.246 12.479 0 0.636 0 1.272 0 1.908-0.517 2.186-0.517 4.292 0 6.438 0.040 0.397 0.040 0.835 0.040 1.272zM299.776 74.78c0-3.338-0.914-4.014-4.093-4.014-43.955 0.119-87.95 0.119-131.905 0-3.378 0-3.934 0.954-3.934 4.093 0.079 121.85 0.079 243.7 0.079 365.51 0 121.611 0 243.263 0 364.874 0 5.087-0.715 4.411 4.411 4.411 43.756 0 87.513 0 131.269 0.079 3.1 0 4.133-0.517 4.133-3.934 0-243.7 0-487.4 0.040-731.020zM710.155 77.363c-105.198-24.561-210.396-49.161-315.554-73.801-13.671-3.179-27.343-6.359-40.974-9.538-3.656-0.835-3.656-0.835-3.656 2.822 0 78.65 0 157.26 0 235.871 0 71.894 0 143.708 0 215.602 0 149.828 0 299.657 0 449.485 0 0.755 0.040 1.51 0 2.265-0.358 2.424 0.238 3.259 3.060 2.583 36.801-8.664 73.603-17.208 110.404-25.793 82.267-19.156 164.573-38.312 246.879-57.388 2.464-0.596 3.14-1.55 3.14-4.014-0.079-244.654-0.079-489.267 0-733.921 0.040-2.702-0.795-3.577-3.299-4.173zM441.616 523.828c-32.628-0.079-59.176-26.747-59.216-59.534 0-32.787 26.508-59.415 59.216-59.454 32.668-0.040 59.335 26.588 59.415 59.296 0.079 32.827-26.786 59.772-59.415 59.693zM441.736 455.074c-5.087 0-9.101 3.974-9.101 9.141-0.040 5.127 4.014 9.3 8.982 9.339 4.928 0.040 9.141-4.173 9.18-9.22s-4.054-9.22-9.061-9.26z" />
<glyph unicode="&#xe912;" glyph-name="type" horiz-adv-x="974" d="M950.936 959.469c-0.31 0.044-0.575 0.354-0.841 0.531-308.629 0-617.303 0-925.977 0-1.637-0.443-3.275-0.841-4.912-1.328-11.064-3.186-18.72-12.967-19.162-24.428-0.044-1.505-0.044-2.965-0.044-4.47 0-266.942 0-533.884 0.089-800.87 0-4.602 0.487-9.515 2.213-13.719 4.204-10.134 12.303-15.533 23.366-16.153 1.859-0.089 3.673-0.044 5.488-0.044 205.251 0 410.547 0 615.843 0 1.549 0 3.142 0 5.178 0 0.089-1.46 0.177-2.788 0.177-4.116 0.044-14.737 0-29.473 0.044-44.21 0.044-17.48 11.019-28.456 28.456-28.544 6.063 0 12.081 0 18.587 0 0.089-1.46 0.221-2.744 0.221-4.071 0-18.189-0.089-36.333 0.044-54.477 0.089-14.338 8.851-24.871 22.525-27.305 1.77-0.31 3.629-0.31 5.443-0.31 18.277-0.044 36.554-0.044 54.831 0 16.728 0 27.969 11.108 28.057 27.836 0.133 17.923 0.044 35.89 0.044 53.813 0 1.328 0 2.744 0 4.558 5.443 0 10.533-0.133 15.622 0.089 3.629 0.133 7.39 0.221 10.798 1.239 11.064 3.275 18.454 13.321 18.543 24.871 0.133 15.578 0.044 31.067 0.044 46.644 0 1.195 0 2.434 0 4.027 1.726 0 3.054 0 4.425 0 28.677 0 57.354-0.044 86.030 0.044 13.719 0 24.207 8.231 26.995 21.154 0.487 2.39 0.531 4.956 0.531 7.435 0 267.783 0 535.521 0 803.304 0 15.533-7.7 25.181-22.658 28.5zM756.881-10.32c-1.106 0-2.213 0-3.54 0 0 7.346 0 14.648 0 22.437 1.239 0 2.301 0 3.54 0 0-7.567 0-14.869 0-22.437zM802.109 75.844c-32.173 0-63.947 0-96.076 0-0.089 1.372-0.177 2.611-0.177 3.806 0 109.087-0.044 218.174 0.044 327.26 0 1.77 0.31 3.717 1.062 5.222 15.179 29.252 30.447 58.504 45.626 87.712 0.354 0.664 0.797 1.328 1.328 2.345 0.841-1.372 1.46-2.39 2.036-3.496 14.914-28.633 29.827-57.265 44.653-85.942 0.929-1.726 1.416-3.894 1.416-5.842 0.089-109.087 0.044-218.174 0.044-327.26 0.044-1.195 0.044-2.39 0.044-3.806zM919.914 152.758c-21.242 0-42.573 0-64.346 0 0 1.416 0 2.832 0 4.337 0 85.455 0 170.866 0.089 256.321 0 6.55-1.46 12.524-4.514 18.366-22.127 42.263-44.122 84.526-66.027 126.877-0.929 1.726-0.841 4.027-0.841 6.063-0.044 2.257 0.62 4.558 0.62 6.771 0.044 13.276 0.044 26.508 0 39.74-0.044 15.666-11.506 27.57-26.597 27.703s-26.774-11.949-26.818-27.792c-0.044-11.285 0-22.614-0.044-33.943 0-1.283-0.266-2.744-0.841-3.894-8.276-15.887-16.595-31.775-24.827-47.662-1.195-2.345-2.345-4.071-5.355-3.142-0.929 0.266-2.036 0.089-3.054 0.089-146.083 0-292.211 0-438.294 0-13.542 0-23.455-6.505-27.526-17.923-5.974-16.994 6.24-34.917 24.163-35.492 1.726-0.044 3.408-0.044 5.133-0.044 136.701 0 273.492 0 410.237 0 1.46 0 2.921 0 5.089 0-0.797-1.637-1.283-2.744-1.814-3.806-5.62-10.754-11.019-21.552-16.861-32.129-3.762-6.815-5.709-13.852-5.178-21.64 0.177-2.345 0-4.691 0-7.39-1.814 0-3.275 0-4.735 0-129.665 0-259.286 0-388.951-0.044-13.099 0-22.968-6.461-26.995-17.613-6.196-17.259 6.24-35.403 24.517-35.802 1.505-0.089 3.009-0.089 4.514-0.089 128.957 0 257.958 0 386.915 0 1.46 0 2.921 0 4.602 0 0-66.116 0-131.966 0-197.994-199.498 0-398.775 0-598.362 0 0 251.143 0 502.242 0 753.518 288.671 0 577.297 0 866.145 0-0.044-251.099-0.044-502.065-0.044-753.385zM258.445 587.556c42.617 0 85.19 0 127.806 0 41.909 0 83.862 0 125.726 0 1.859 0 3.673 0 5.488 0.133 16.949 1.106 28.544 17.702 23.72 34.032-3.585 12.258-13.852 19.295-28.234 19.295-84.481 0-169.007 0-253.533 0-1.814 0-3.673-0.044-5.488-0.221-17.171-1.682-28.19-19.162-22.393-35.403 4.027-11.329 13.763-17.834 26.907-17.834zM256.852 741.251c21.773-0.133 43.635-0.044 65.408-0.044 0 0 0 0.044 0 0.044 22.26 0 44.564-0.221 66.824 0.089 17.082 0.221 29.164 17.082 24.561 33.589-3.408 12.303-13.719 19.737-27.526 19.737-42.484 0-84.968 0-127.452 0-0.929 0-1.859 0-2.744-0.044-16.595-1.018-27.836-14.692-25.49-31.111 1.77-12.657 12.922-22.171 26.42-22.26z" />
<glyph unicode="&#xe913;" glyph-name="citeQuote" horiz-adv-x="1339" d="M316.967 950.626c-142.1 0-249.541-103.975-249.541-232.212s107.441-228.746 232.212-228.746c58.919 0 103.975 17.329 107.441 17.329-3.466-242.609-197.553-391.641-235.678-422.833-24.261-20.795-31.193-55.454-10.398-79.714l51.988-48.522c24.261-27.727 51.988-24.261 79.714-3.466 90.112 79.714 311.926 291.131 311.926 627.318 0 284.199-162.895 370.846-287.665 370.846v0zM985.876 950.626c-142.1 0-249.541-103.975-249.541-232.212s107.441-228.746 232.212-228.746c58.919 0 100.51 17.329 107.441 17.329-3.466-242.609-197.553-391.641-235.678-422.833-27.727-20.795-31.193-55.454-10.398-79.714l51.988-48.522c24.261-27.727 48.522-24.261 76.249-3.466 90.112 79.714 311.926 291.131 311.926 627.318 0 284.199-159.429 370.846-284.199 370.846v0z" />
<glyph unicode="&#xe914;" glyph-name="exclamation_circle" d="M514.53-62.223c-281.449 0-510.404 228.864-510.404 510.163 0 281.389 228.984 510.283 510.404 510.283 281.389 0 510.283-228.924 510.283-510.283 0-281.299-228.894-510.163-510.283-510.163v0zM514.53 897.988c-248.23 0-450.168-201.909-450.168-450.048 0-248.109 201.939-449.928 450.168-449.928 248.169 0 450.048 201.848 450.048 449.928 0 248.169-201.879 450.048-450.048 450.048v0zM562.236 212.058c0-30.506-24.73-55.236-55.236-55.236s-55.236 24.73-55.236 55.236c0 30.506 24.73 55.236 55.236 55.236s55.236-24.73 55.236-55.236zM544.949 448.934c-2.952-33.009-16.655-59.994-30.479-59.994s-27.528 26.985-30.479 59.994l-19.426 216.305c-2.952 33.009 19.486 59.994 49.875 59.994s52.826-26.985 49.875-59.994l-19.366-216.305z" />
<glyph unicode="&#xe915;" glyph-name="star" horiz-adv-x="986" d="M491.979 168.565c7.502 0 15.004-2.413 21.413-7.314l246.477-188.305c33.264-25.413 50.241-13.689 37.918 26.193l-94.843 306.94c-4.916 15.777 0.473 33.086 13.219 42.812l246.594 188.336c33.279 25.417 26.609 46.022-15.563 46.022h-303.355c-15.805 0-29.716 10.684-34.633 26.461l-94.843 306.94c-12.322 39.879-32.303 39.881-44.63 0l-94.872-306.94c-4.88-15.777-18.901-26.461-34.633-26.461h-303.326c-41.871 0-48.589-20.798-15.57-46.022l246.535-188.336c12.782-9.765 18.099-27.035 13.219-42.812l-94.872-306.94c-12.326-39.879 4.896-51.413 37.904-26.193l246.447 188.305c6.409 4.863 13.911 7.314 21.413 7.314v0z" />
<glyph unicode="&#xe916;" glyph-name="linkedin" d="M519.107 956.826c-278.528 0-504.32-225.792-504.32-504.32 0-278.569 225.792-504.32 504.32-504.32 278.487 0 504.279 225.751 504.279 504.32 0 278.508-225.812 504.32-504.279 504.32v0zM799.99 207.544c0-22.446-18.637-40.591-41.595-40.591h-479.601c-22.999 0-41.595 18.166-41.595 40.591v485.151c0 22.405 18.596 40.591 41.595 40.591h479.58c22.958 0 41.595-18.207 41.595-40.591v-485.151h0.020zM616.428 520.888c-45.076 0-65.29-24.76-76.595-42.209v-0.84h-0.553c0.205 0.246 0.41 0.553 0.553 0.84v36.209h-84.992c1.126-23.962 0-255.672 0-255.672h84.992v142.807c0 7.68 0.553 15.237 2.806 20.726 6.164 15.237 20.152 31.13 43.602 31.13 30.802 0 43.090-23.47 43.090-57.836v-136.806h84.992v146.575c-0.020 78.561-41.984 115.077-97.894 115.077v0zM365.855 638.218c-29.061 0-48.108-19.128-48.108-44.216 0-24.515 18.432-44.196 46.981-44.196h0.553c29.635 0 48.087 19.681 48.087 44.196-0.553 25.088-18.432 44.216-47.514 44.216v0zM322.806 514.888h85.012v-255.672h-85.012v255.672z" />
<glyph unicode="&#xe917;" glyph-name="love2" horiz-adv-x="1099" d="M569.544-55.159l-20.080-8.791-20.080 8.791c-258.098 158.22-529.383 518.369-529.383 718.398 0.874 163.79 134.968 296.76 299.707 296.76 104.123 0 196.034-53.148 249.756-133.595 53.723 80.446 145.633 133.595 249.756 133.595 164.739 0 298.833-132.97 299.707-296.76 0-200.030-271.285-560.178-529.383-718.398z" />
<glyph unicode="&#xe918;" glyph-name="whats" d="M513.212 679.697c-129.075 0-234.069-104.192-234.069-232.26 0-50.825 16.572-97.894 44.578-136.192l-29.235-86.238 89.958 28.587c36.966-24.286 81.237-38.417 128.785-38.417 129.058 0 234.086 104.175 234.086 232.243-0.017 128.068-105.045 232.277-234.103 232.277zM649.813 351.607c-5.7-15.821-33.57-31.061-46.046-32.205-12.527-1.126-12.527-10.172-81.937 16.93-69.359 27.136-113.152 97.741-116.565 102.229-3.413 4.523-27.853 36.71-27.853 70.042s17.63 49.698 23.876 56.491c6.263 6.775 13.653 8.465 18.193 8.465s9.097-0.563 13.090-0.563c3.994 0 9.66 2.253 15.343-11.298s19.337-46.882 21.043-50.261c1.707-3.396 2.85-7.356 0.563-11.861-2.27-4.523-3.396-7.339-6.81-11.298-3.413-3.942-7.168-8.823-10.24-11.861-3.413-3.362-6.98-7.031-2.987-13.807 3.977-6.775 17.681-28.945 37.956-46.899 26.078-23.074 48.060-30.225 54.886-33.604 6.81-3.396 10.803-2.833 14.78 1.707 3.977 4.523 17.067 19.763 21.623 26.539 4.54 6.793 9.097 5.649 15.36 3.396 6.229-2.27 39.799-18.654 46.626-22.033 6.793-3.379 11.366-5.086 13.073-7.902 1.707-2.85 1.707-16.401-3.977-32.205zM512 960c-282.761 0-512-229.239-512-512s229.239-512 512-512 512 229.239 512 512-229.239 512-512 512zM513.212 171.162c-48.811 0-94.686 12.459-134.588 34.372l-154.146-48.981 50.244 148.241c-25.344 41.626-39.953 90.453-39.953 142.643 0 152.576 124.655 276.275 278.426 276.275 153.754 0 278.409-123.682 278.409-276.275 0.034-152.593-124.621-276.275-278.391-276.275z" />
<glyph unicode="&#xe919;" glyph-name="uniE9022" d="M508.029 566.957v-261.387l236.057 133.623z" />
<glyph unicode="&#xe91a;" glyph-name="twitter-2" d="M519.127 956.785c-278.528 0-504.32-225.833-504.32-504.32 0-278.528 225.792-504.279 504.32-504.279s504.279 225.751 504.279 504.279c0 278.487-225.772 504.32-504.279 504.32v0zM773.161 554.148c0.266-5.448 0.369-10.916 0.369-16.445 0-167.956-127.836-361.595-361.595-361.595-71.762 0-138.588 21.033-194.826 57.078 9.953-1.167 20.050-1.761 30.31-1.761 59.556 0 114.36 20.316 157.839 54.395-55.603 1.044-102.523 37.806-118.702 88.289 7.741-1.516 15.708-2.273 23.9-2.273 11.592 0 22.815 1.516 33.485 4.444-58.163 11.674-101.97 63.078-101.97 124.6 0 0.553 0 1.085 0.020 1.638 17.121-9.523 36.721-15.237 57.569-15.913-34.12 22.835-56.545 61.686-56.545 105.8 0 23.286 6.267 45.138 17.203 63.898 62.689-76.882 156.344-127.488 261.98-132.772-2.171 9.277-3.297 19.005-3.297 28.959 0 70.164 56.893 127.078 127.099 127.078 36.557 0 69.571-15.442 92.754-40.12 28.959 5.673 56.156 16.282 80.712 30.843-9.523-29.696-29.655-54.6-55.91-70.308 25.743 3.072 50.237 9.912 73.011 20.009-16.998-25.539-38.564-47.923-63.406-65.843v0z" />
<glyph unicode="&#xe91b;" glyph-name="facebook-2" d="M519.107 956.785c-278.528 0-504.32-225.833-504.32-504.32 0-278.528 225.792-504.279 504.32-504.279s504.32 225.751 504.32 504.279c0 278.487-225.812 504.32-504.32 504.32v0zM652.575 454.574h-87.327v-311.439h-129.434v311.439h-61.563v109.957h61.563v71.25c0 50.995 24.207 130.601 130.642 130.601l95.846-0.369v-106.803h-69.591c-11.366 0-27.443-5.673-27.443-29.921v-64.778h98.673l-11.366-109.937z" />
<glyph unicode="&#xe91c;" glyph-name="pinterest-2" d="M519.127 956.764c-278.508 0-504.32-225.751-504.32-504.32 0-206.479 124.17-383.877 301.855-461.885-1.413 35.246-0.246 77.476 8.786 115.794 9.687 40.96 64.881 274.801 64.881 274.801s-16.118 32.195-16.118 79.79c0 74.711 43.315 130.519 97.26 130.519 45.875 0 68.035-34.447 68.035-75.674 0-46.121-29.43-115.077-44.544-178.954-12.616-53.514 26.829-97.157 79.606-97.157 95.539 0 159.908 122.716 159.908 268.124 0 110.531-74.445 193.27-209.838 193.27-152.986 0-248.279-114.074-248.279-241.5 0-43.95 12.964-74.916 33.26-98.918 9.318-10.998 10.629-15.442 7.25-28.078-2.417-9.277-7.967-31.642-10.26-40.489-3.359-12.8-13.701-17.367-25.252-12.636-70.451 28.754-103.281 105.923-103.281 192.676 0 143.237 120.812 315.023 360.428 315.023 192.512 0 319.242-139.346 319.242-288.911 0-197.796-109.957-345.6-272.077-345.6-54.456 0-105.677 29.45-123.208 62.833 0 0-29.286-116.204-35.471-138.609-10.691-38.912-31.642-77.763-50.77-108.032 45.363-13.394 93.266-20.685 142.93-20.685 278.487 0 504.279 225.751 504.279 504.279-0.020 278.589-225.833 504.34-504.3 504.34v0z" />
<glyph unicode="&#xe91d;" glyph-name="instagram-2" d="M727.286 562.852v92.918l-92.918-0.328 0.307-92.897 92.611 0.307zM516.608 348.303c53.207 0 96.522 43.274 96.522 96.481 0 20.992-6.84 40.448-18.289 56.279-17.51 24.289-46.039 40.243-78.234 40.243s-60.682-15.954-78.234-40.243c-11.448-15.831-18.248-35.287-18.248-56.279 0-53.207 43.274-96.481 96.481-96.481v0zM519.127 956.764c-278.528 0-504.32-225.751-504.32-504.279s225.792-504.32 504.32-504.32c278.487 0 504.279 225.792 504.279 504.32s-225.812 504.279-504.279 504.279v0zM790.753 501.064v-224.481c0-58.409-47.555-105.923-105.964-105.923h-336.384c-58.429 0-105.943 47.514-105.943 105.923v336.384c0 58.429 47.514 105.943 105.943 105.943h336.384c58.409 0 105.964-47.514 105.964-105.943v-111.903zM666.522 444.785c0-82.637-67.236-149.914-149.914-149.914s-149.873 67.277-149.873 149.914c0 19.927 3.953 38.871 10.998 56.279h-81.838v-224.481c0-28.959 23.552-52.511 52.511-52.511h336.384c28.959 0 52.511 23.552 52.511 52.511v224.481h-81.879c7.107-17.408 11.1-36.372 11.1-56.279v0z" />
<glyph unicode="&#xe91e;" glyph-name="envelope" horiz-adv-x="1451" d="M1280.256-43.648h-1109.845c-70.571 0-128 57.429-128 128v727.339c0 70.571 57.429 128 128 128h1109.845c70.571 0 128-57.429 128-128v-727.339c0-70.613-57.429-128-128-128v0zM170.411 854.315c-23.552 0-42.667-19.157-42.667-42.667v-727.339c0-23.509 19.115-42.667 42.667-42.667h1109.845c23.552 0 42.667 19.157 42.667 42.667v727.339c0 23.509-19.115 42.667-42.667 42.667h-1109.845zM725.333 319.019c-33.237 0-66.56 11.221-92.459 33.707l-520.107 450.517c-17.835 15.403-19.755 42.368-4.352 60.203 15.445 17.792 42.453 19.712 60.16 4.309l520.149-450.517c19.499-16.896 53.717-16.896 73.131 0l520.107 450.517c17.707 15.403 44.672 13.483 60.16-4.309 15.403-17.792 13.483-44.757-4.352-60.203l-520.064-450.517c-25.813-22.485-59.136-33.707-92.373-33.707v0z" />
<glyph unicode="&#xe91f;" glyph-name="copy-link" horiz-adv-x="1084" d="M337.217-12.082c-58.568 0-117.069 21.831-161.615 65.46l-21.165 20.73c-89.092 87.258-89.092 229.288 0.033 316.546l97.723 95.68c12.931 12.664 33.831 12.664 46.761 0s12.931-33.135 0-45.799l-97.723-95.68c-63.33-62.027-63.33-162.921 0-224.948l21.132-20.73c63.297-62.027 166.344-61.994 229.674 0l143.79 140.864c30.491 29.928 47.291 69.865 47.291 112.523s-16.8 82.562-47.291 112.458c-12.931 12.664-12.931 33.135 0 45.799 12.864 12.664 33.831 12.664 46.761 0 43.025-42.107 66.67-98.303 66.67-158.257s-23.645-116.183-66.67-158.322l-143.79-140.864c-44.546-43.629-103.047-65.46-161.582-65.46v0zM480.742 361.212c-8.466 0-16.965 3.174-23.381 9.49-89.058 87.226-89.058 229.223-0.066 316.546l143.922 140.864c42.958 42.107 100.302 65.33 161.582 65.33 61.213 0 118.623-23.191 161.648-65.33l21.099-20.794c42.991-42.074 66.703-98.271 66.703-158.225 0-59.921-23.711-116.118-66.736-158.257l-97.657-95.712c-12.931-12.664-33.831-12.664-46.761 0-12.931 12.632-12.931 33.135-0.033 45.799l97.657 95.712c30.59 29.896 47.39 69.833 47.39 112.458s-16.8 82.594-47.357 112.49l-21.132 20.794c-30.491 29.799-71.234 46.285-114.82 46.285s-84.329-16.454-114.82-46.35l-143.856-140.864c-63.297-62.027-63.297-162.954 0-224.948 12.931-12.664 12.931-33.135 0-45.799-6.449-6.316-14.915-9.49-23.381-9.49v0z" />
<glyph unicode="&#xe920;" glyph-name="google" d="M511.46 955.619c123.457 5.737 239.509-47.99 334.064-123.456-40.358-45.862-82.146-90.039-126.793-131.355-113.669 78.565-275.323 101.019-388.992 10.265-162.606-112.476-170.011-378.046-13.6-499.119 152.104-138.046 439.597-69.508 481.623 141.859-95.269 1.43-190.794 0-286.063 3.098-0.238 56.842-0.477 113.685-0.238 170.51 159.27 0.477 318.54 0.732 478.048-0.477 9.549-133.739-8.119-276.074-90.265-386.643-124.41-175.055-374.166-226.161-569.028-151.171-195.56 74.513-334.064 281.096-317.587 491.731 4.306 257.688 241.177 483.355 498.832 474.758z" />
<glyph unicode="&#xe921;" glyph-name="heart" horiz-adv-x="1073" d="M1072.762 658.066c-0.853 159.89-131.755 289.694-292.571 289.694-101.644 0-191.366-51.883-243.81-130.414-52.443 78.531-142.165 130.414-243.81 130.414-160.817 0-291.718-129.804-292.571-289.694 0-195.267 264.826-546.84 516.779-701.294l19.602-8.582 19.602 8.582c251.953 154.453 516.779 506.027 516.779 701.294zM1024 657.822c0-172.008-249.515-507.075-487.619-656.018-238.104 148.943-487.619 484.035-487.619 656.262 0.707 132.852 110.104 241.152 243.81 241.152 81.774 0 157.72-40.643 203.215-108.715l40.594-60.806 40.594 60.782c45.495 68.096 121.442 108.739 203.215 108.739 133.705 0 243.102-108.3 243.81-241.396z" />
<glyph unicode="&#xe922;" glyph-name="icon-bottom-slim-arrow" horiz-adv-x="1593" d="M1355.991 827.12l-654.222-654.222h160.906l-654.222 654.222c-44.433 44.433-116.473 44.433-160.906 0s-44.433-116.473 0-160.906l654.222-654.222c44.433-44.433 116.473-44.433 160.906 0l654.222 654.222c44.433 44.433 44.433 116.473 0 160.906s-116.473 44.433-160.906 0v0z" />
<glyph unicode="&#xe924;" glyph-name="Close" d="M391.375 448.037l-366.256-366.329c-16.654-16.654-25.023-38.517-25.023-60.38s8.369-43.726 25.023-60.38c33.392-33.392 87.452-33.392 120.759 0l366.256 366.329 365.987-365.987c33.392-33.392 87.367-33.392 120.759 0s33.392 87.367 0 120.759l-365.999 365.999 366.17 366.244c33.392 33.392 33.392 87.367 0 120.759s-87.452 33.392-120.759 0l-366.17-366.244-366.244 366.244c-33.392 33.392-87.367 33.392-120.759 0-16.654-16.654-25.023-38.517-25.023-60.38s8.369-43.726 25.023-60.38l366.256-366.256z" />
<glyph unicode="&#xe925;" glyph-name="icon-left-slim-arrow" horiz-adv-x="614" d="M541.783 89.516l-425.244 425.244v-96.544l425.244 425.244c26.66 26.66 26.66 69.884 0 96.544s-69.884 26.66-96.544 0l-425.244-425.244c-26.66-26.66-26.66-69.884 0-96.544l425.244-425.244c26.66-26.66 69.884-26.66 96.544 0s26.66 69.884 0 96.544v0z" />
<glyph unicode="&#xe926;" glyph-name="icon-right-slim-arrow" horiz-adv-x="585" d="M21.423 835.137l420.571-420.571v103.44l-420.571-420.571c-28.564-28.564-28.564-74.876 0-103.44s74.876-28.564 103.44 0l420.571 420.571c28.564 28.564 28.564 74.876 0 103.44l-420.571 420.571c-28.564 28.564-74.876 28.564-103.44 0s-28.564-74.876 0-103.44v0z" />
<glyph unicode="&#xe927;" glyph-name="icon-top-slim-arrow" horiz-adv-x="1593" d="M1516.898 172.897l-654.222 654.222c-44.433 44.433-116.473 44.433-160.906 0l-654.222-654.222c-44.433-44.433-44.433-116.473 0-160.906s116.473-44.433 160.906 0l654.222 654.222h-160.906l654.222-654.222c44.433-44.433 116.473-44.433 160.906 0s44.433 116.473 0 160.906v0z" />
<glyph unicode="&#xe928;" glyph-name="zoom-out" d="M162.416 76.582c-205.839 191.948-217.201 515.475-25.355 721.204 191.907 205.795 515.481 217.031 721.298 25.103 205.795-191.907 217.072-515.437 25.185-721.21-191.845-205.729-515.333-217.004-721.128-25.097v0zM817.279 778.836c-181.544 169.292-466.934 159.347-636.164-22.13-169.21-181.456-159.161-466.778 22.383-636.070 181.5-169.251 466.805-159.309 635.994 22.124 169.251 181.5 159.287 466.825-22.212 636.076v0zM280.446 417.158c-5.639 5.258-9.265 12.675-9.555 20.976-0.581 16.644 12.4 30.564 29.044 31.146l425.158 14.847c16.644 0.581 30.564-12.4 31.146-29.044s-12.4-30.564-29.044-31.146l-425.158-14.847c-8.301-0.29-15.952 2.81-21.591 8.068v0z" />
<glyph unicode="&#xe929;" glyph-name="icon-ignite" d="M155.91 82.97v0c202.355-195.412 525.894-189.786 721.243 12.504 195.391 202.333 189.764 525.915-12.591 721.327-202.376 195.433-526.002 189.848-721.413-12.507-195.349-202.29-189.637-525.87 12.761-721.324zM560.406 896.812c95.383-10.631 188.098-51.647 262.326-123.327 178.465-172.342 183.447-457.714 11.105-636.179-172.279-178.4-457.63-183.36-636.096-11.018-178.509 172.384-183.575 457.754-11.275 636.176 74.512 77.16 170.174 121.883 269.195 133.857l8.852-631.904c0.403-28.961 24.131-51.876 53.089-51.268s52.072 24.543 51.632 53.467l-8.828 630.196z" />
<glyph unicode="&#xe92a;" glyph-name="Icon-up-arrow" horiz-adv-x="3123" d="M1729.894 10.394c-37.325 281.754 85.197 556.288 319.693 716.39 340.582 232.55 806.81 144.538 1039.206-195.891 15.974-23.398 9.984-55.245-13.414-71.168-23.347-15.974-55.194-9.984-71.117 13.414-200.653 293.888-602.982 369.766-897.024 169.062-202.342-138.189-308.122-375.142-275.917-618.394 3.686-28.058-15.974-53.76-43.981-57.498-2.253-0.256-4.557-0.41-6.758-0.41-25.293 0-47.309 18.739-50.688 44.493zM2653.645 449.792c-28.262 0-51.149 22.835-51.2 51.098s22.784 51.251 51.046 51.302l341.709 0.87-1.024 341.658c0 28.262 22.784 51.251 51.098 51.354h0.102c28.314 0 51.2-22.835 51.2-51.046l1.126-392.909c0.051-13.619-5.325-26.624-14.899-36.25s-22.579-15.053-36.147-15.104l-393.011-0.973zM1387.83 10.394c37.325 281.754-85.197 556.288-319.693 716.39-340.582 232.55-806.81 144.538-1039.206-195.891-15.974-23.398-9.984-55.245 13.414-71.168 23.347-15.974 55.194-9.984 71.117 13.414 200.653 293.888 602.982 369.766 897.024 169.062 202.342-138.189 308.122-375.142 275.917-618.394-3.686-28.058 15.974-53.76 43.981-57.498 2.253-0.256 4.557-0.41 6.758-0.41 25.293 0 47.309 18.739 50.688 44.493zM464.079 449.792c28.262 0 51.149 22.835 51.2 51.098s-22.784 51.251-51.046 51.302l-341.709 0.87 1.024 341.658c0 28.262-22.784 51.251-51.098 51.354h-0.102c-28.314 0-51.2-22.835-51.2-51.046l-1.126-392.909c-0.051-13.619 5.325-26.624 14.899-36.25s22.579-15.053 36.147-15.104l393.011-0.973z" />
<glyph unicode="&#xe92b;" glyph-name="zoom_icon" d="M162.416 76.582c-205.839 191.948-217.201 515.475-25.355 721.204 191.907 205.795 515.481 217.031 721.298 25.103 205.795-191.907 217.072-515.437 25.185-721.21-191.845-205.729-515.333-217.004-721.128-25.097v0zM484.588 415.464l6.394-182.569c0.29-8.301 3.916-15.717 9.555-20.976s13.291-8.358 21.591-8.068c16.644 0.581 29.646 14.524 29.044 31.146l-6.394 182.569 182.417 6.37c16.644 0.581 29.625 14.502 29.044 31.146s-14.502 29.625-31.146 29.044l-182.423-6.37-6.392 182.526c-0.581 16.644-14.502 29.625-31.146 29.044s-29.646-14.524-29.044-31.146l6.392-182.526-182.545-6.375c-16.644-0.581-29.625-14.502-29.044-31.146 0.29-8.301 3.916-15.717 9.555-20.976s13.291-8.358 21.591-8.068l182.551 6.375zM817.279 778.836c-181.544 169.292-466.934 159.347-636.164-22.13-169.21-181.456-159.161-466.778 22.383-636.070 181.5-169.251 466.805-159.309 635.994 22.124 169.251 181.5 159.287 466.825-22.212 636.076z" />
<glyph unicode="&#xe92c;" glyph-name="play" horiz-adv-x="768" d="M105.689 38.4c2.537 0 5.072-0.576 7.497-1.767 5.754-2.8 9.694-9.019 9.694-16.041v854.844c0-7.016-3.894-13.193-9.83-16.107-5.622-2.744-12.114-2.182-17.207 1.547l577.010-423.807c-4.497 3.307-7.215 8.616-7.252 14.319-0.020 5.981 2.649 11.285 7.066 14.594l-577.037-430.914c2.921 2.175 6.422 3.331 10.060 3.331v0zM105.689-64c18.356 0 36.312 5.927 51.155 16.981l577.157 431.003c21.432 16.057 34.085 41.202 33.998 67.904-0.174 26.86-12.976 51.862-34.504 67.694l-577.092 423.867c-25.72 18.836-59.823 21.786-88.372 7.853-29.047-14.26-47.552-43.619-47.552-75.866v-854.844c0-32.389 18.621-61.788 47.74-75.958 11.607-5.699 24.52-8.634 37.469-8.634v0z" />
<glyph unicode="&#xe92d;" glyph-name="plus_desktop" horiz-adv-x="1033" d="M958.548 492.991h-396.902v396.902c0 28.867-20.145 52.271-44.991 52.271s-44.991-23.403-44.991-52.271v-396.893h-396.902c-28.867 0-52.271-20.145-52.271-44.991s23.403-44.991 52.271-44.991h396.893v-396.893c0-28.867 20.145-52.271 44.991-52.271s44.991 23.403 44.991 52.271v396.884h396.893c28.867 0 52.271 20.145 52.271 44.991s-23.384 44.991-52.252 44.991z" />
<glyph unicode="&#xe92e;" glyph-name="phone_desktop" d="M1009.484 173.576c-13.075 38.861-54.706 78.216-94.090 88.899l-129.829 35.466c-39.981 10.877-95.116-3.448-124.173-32.503l-46.995-46.997 12.929 3.45c-166.211 44.915-296.551 175.265-341.4 341.43l-3.451-12.925 46.996 46.996c29.060 29.060 43.38 84.131 32.507 124.094l-35.41 129.922c-10.751 39.444-50.176 81.081-88.993 94.022l-14.791 4.973c-39.464 13.131-94.144 0.233-123.485-29.108l-70.304-70.368c-12.183-12.119-24.493-48.296-24.493-57.795-2.499-226.742 86.501-445.206 246.848-605.555 159.893-159.893 377.511-248.823 603.824-246.914 10.5 0 47.429 11.972 59.798 24.278l70.324 70.323c29.34 29.34 42.238 84.020 29.122 123.445l-4.934 14.866zM984.149 165.11l4.92-14.823c9.928-29.844-0.474-73.946-22.66-96.133l-70.299-70.299c-3.569-3.55-12.596-7.86-24.191-11.619-4.526-1.467-9.163-2.768-13.427-3.816-1.61-0.396-3.064-0.729-4.19-0.966-0.434-0.091-0.781-0.16-0.995-0.199-0.259-0.017-0.259-0.017 1.758 0.122-219.268-1.849-429.998 84.266-584.823 239.091-155.263 155.265-241.445 366.813-239.025 586.519-0.332-3.051-0.332-3.051-0.239-2.388 0.088 0.383 0.088 0.383 0.238 1.013 0.274 1.137 0.612 2.473 1.002 3.94 1.106 4.154 2.407 8.521 3.87 12.822 3.839 11.283 8.161 20.049 11.777 23.646l70.329 70.393c22.183 22.183 66.286 32.586 96.119 22.659l14.783-4.971c30.381-10.128 63.301-44.895 71.701-75.716l35.409-129.916c8.37-30.767-3.376-75.94-25.622-98.187l-52.46-52.46 2.014-7.461c47.326-175.344 184.835-312.863 360.222-360.258l7.463-2.017 52.46 52.462c22.241 22.24 67.48 33.994 98.259 25.62l129.839-35.469c30.783-8.35 65.552-41.217 75.788-71.642l-0.017 0.052z" />
<glyph unicode="&#xe92f;" glyph-name="phone" d="M800.96-43.84c-104.96 0-300.48 72.32-504.32 276.48-114.24 113.92-201.28 241.28-245.44 358.72-42.56 112.64-41.28 202.56 3.2 247.36 5.76 5.44 11.2 11.52 17.28 17.6 35.2 37.12 79.36 83.52 137.92 83.52 43.52 0 84.8-24.96 126.080-76.48 109.44-136 69.76-193.92 1.92-260.8l-9.92-9.6c-0.32-0.32-21.12-35.52 136.32-192.96 124.16-124.16 172.8-137.6 187.84-137.6v0c3.52 0 4.48 0.64 4.8 1.28l10.24 9.92c31.68 32.64 64.96 66.24 116.48 66.24 40.64 0 86.4-21.76 144-68.16 49.6-39.68 74.56-79.36 76.16-121.6 2.56-61.12-45.12-106.24-83.2-142.72-6.4-5.76-12.16-11.2-17.92-16.96-22.080-22.4-57.28-34.24-101.44-34.24v0zM209.6 875.84c-31.36 0-63.36-33.92-91.52-63.68-6.4-6.4-12.48-12.8-18.24-18.88-20.48-20.16-24.96-83.84 11.2-179.2 41.28-109.12 123.2-228.48 230.72-336.32 178.24-177.92 359.040-257.6 459.52-257.6 26.24 0 46.080 5.76 56 15.68 6.080 5.76 12.48 11.84 18.88 18.24 30.4 28.8 64.96 61.44 63.68 93.44-0.96 22.080-18.56 47.36-52.48 74.56-44.48 35.52-79.36 53.76-104 53.76-23.36 0-41.28-16.96-71.040-47.040l-10.24-10.56c-13.12-13.12-30.4-19.84-50.24-19.84v0c-32.96 0-92.8 16.32-232.96 156.48-97.6 97.6-201.6 217.92-136.32 283.2l10.24 10.24c52.8 51.84 74.88 73.6-6.72 175.040-28.16 34.56-53.76 52.48-76.48 52.48v0z" />
<glyph unicode="&#xe930;" glyph-name="download" horiz-adv-x="995" d="M966.305-60.372h-936.229c-16.15 0-29.257 13.078-29.257 29.257s13.107 29.257 29.257 29.257h936.229c16.15 0 29.257-13.078 29.257-29.257s-13.107-29.257-29.257-29.257v0zM498.191 215.113c-16.15 0-29.257 13.078-29.257 29.257v662.616c0 16.179 13.107 29.257 29.257 29.257s29.257-13.078 29.257-29.257v-662.616c0-16.179-13.107-29.257-29.257-29.257v0zM498.132 215.113v0c-7.753 0-15.214 3.072-20.685 8.572l-262.524 262.583c-11.44 11.44-11.44 29.93 0 41.37s29.93 11.44 41.37 0l241.84-241.898 241.927 241.898c11.469 11.44 29.959 11.44 41.399 0 11.41-11.44 11.41-29.93 0-41.37l-262.671-262.583c-5.442-5.471-12.902-8.572-20.656-8.572v0z" />
<glyph unicode="&#xe931;" glyph-name="plus" horiz-adv-x="967" d="M876.089 391.111h-815.218c-31.289 0-56.889 25.031-56.889 56.889 0 31.289 25.6 56.889 56.889 56.889h815.218c31.289 0 56.889-25.6 56.889-56.889 0-31.858-25.6-56.889-56.889-56.889v0zM468.196-16.782c-31.289 0-56.889 25.6-56.889 56.889v814.649c0 31.858 25.6 56.889 56.889 56.889 31.858 0 56.889-25.031 56.889-56.889v-814.649c0-31.289-25.031-56.889-56.889-56.889v0z" />
<glyph unicode="&#xe932;" glyph-name="speaker" horiz-adv-x="1385" d="M641.506 34.485c-5.12 0-10.541 1.506-15.059 4.216l-317.741 185.224h-258.409c-16.866 0-30.118 13.553-30.118 30.118v387.915c0 16.565 13.252 30.118 30.118 30.118h258.409l317.741 185.224c9.336 5.421 20.781 5.421 30.118 0s15.059-15.36 15.059-25.901v-766.795c0-10.541-5.722-20.781-15.059-25.901-4.819-2.711-9.939-4.216-15.059-4.216v0zM80.414 284.16h236.424c5.421 0 10.842-1.205 15.36-3.915l279.191-163.238v661.685l-279.191-162.936c-4.518-2.711-9.939-3.915-15.36-3.915h-236.424v-327.68zM923.106 181.76c-12.047 0-23.191 6.927-28.009 18.372-6.325 15.36 0.904 33.129 15.962 39.454 82.522 34.936 135.831 115.351 135.831 204.8 0 91.859-57.826 175.285-143.661 207.812-15.661 5.722-23.492 23.191-17.769 38.852 6.024 15.36 23.191 23.191 38.852 17.468 109.327-41.261 182.814-147.576 182.814-264.132 0-113.845-67.765-215.944-172.574-260.216-3.614-1.506-7.831-2.409-11.445-2.409v0zM1023.398-56.169c-11.746 0-22.889 6.927-27.708 18.372-6.325 15.36 0.602 33.129 15.962 39.454 178.296 75.294 293.346 249.073 293.346 442.729 0 198.475-124.988 379.181-310.814 449.355-15.661 6.024-23.492 23.492-17.468 38.852 5.722 15.661 23.191 23.492 38.852 17.468 209.016-78.908 349.666-282.202 349.666-505.675 0-217.751-129.506-413.515-330.089-498.146-3.915-1.506-7.831-2.409-11.746-2.409v0z" />
<glyph unicode="&#xe933;" glyph-name="arrow-left" horiz-adv-x="1243" d="M1203.2 417.28h-1156.754c-20.48 0-36.571 16.091-36.571 36.571 0 20.114 16.091 36.571 36.571 36.571h1156.754c20.114 0 36.571-16.457 36.571-36.571 0-20.48-16.457-36.571-36.571-36.571v0zM504.686-41.326c-9.143 0-18.651 3.657-25.6 10.606l-458.606 458.606c-6.949 6.949-10.606 16.091-10.606 25.966 0 9.509 3.657 19.017 10.606 25.966l458.606 458.24c14.263 14.263 37.303 14.263 51.566 0s14.263-37.669 0-51.931l-432.64-432.274 432.64-432.64c14.263-14.263 14.263-37.669 0-51.931-7.314-6.949-16.457-10.606-25.966-10.606v0z" />
<glyph unicode="&#xe934;" glyph-name="love" horiz-adv-x="1265" d="M634.88-60.988c-7.228 0-14.456 2.711-20.179 8.132l-491.821 451.162c-68.367 62.946-106.014 146.673-106.014 235.821 0 89.449 37.647 173.176 106.014 236.122 60.838 55.718 141.553 86.438 227.388 86.438s166.551-30.72 227.388-86.438l57.224-52.706 57.224 52.706c61.139 55.718 141.854 86.438 227.388 86.438 85.835 0 166.551-30.72 227.388-86.438 68.668-62.946 106.315-146.673 106.315-236.122 0-89.148-37.647-172.875-106.315-235.821l-491.52-451.162c-5.722-5.421-12.951-8.132-20.48-8.132v0zM350.268 896.452c-70.475 0-136.734-24.998-186.428-70.776-56.019-51.2-86.739-119.266-86.739-191.548 0-71.981 30.72-140.047 86.739-191.548l471.040-432.489 471.341 432.489c56.019 51.501 86.739 119.567 86.739 191.548 0 72.282-30.72 140.348-86.739 191.548-49.694 45.779-115.953 70.776-186.729 70.776-70.475 0-136.734-24.998-186.428-70.776l-77.704-71.078c-11.445-10.541-29.214-10.541-40.659 0l-77.704 71.078c-49.694 45.779-115.953 70.776-186.729 70.776v0z" />
<glyph unicode="&#xe935;" glyph-name="search" d="M433.393 117.007c-225.581 0-409.299 183.718-409.299 409.6 0 225.581 183.718 409.299 409.299 409.299 225.882 0 409.6-183.718 409.6-409.299 0-225.882-183.718-409.6-409.6-409.6v0zM433.393 875.671c-192.452 0-349.064-156.612-349.064-349.064 0-192.753 156.612-349.365 349.064-349.365 192.753 0 349.365 156.612 349.365 349.365 0 192.452-156.612 349.064-349.365 349.064v0zM969.788-39.906c-7.529 0-15.36 3.012-21.384 8.734l-262.927 262.927c-11.746 11.746-11.746 30.72 0 42.466 12.047 12.047 31.021 12.047 42.767 0l262.927-262.927c11.746-11.746 11.746-30.72 0-42.466-6.024-5.722-13.553-8.734-21.384-8.734v0z" />
<glyph unicode="&#xe936;" glyph-name="triangle" horiz-adv-x="1890" d="M106.338 844.209c-58.289 63.803-35.446 115.791 51.2 115.791h1575.385c86.646 0 109.489-51.988 51.2-115.791l-732.554-792.418c-58.289-63.803-154.388-63.803-212.677 0l-732.554 792.418z" />
<glyph unicode="&#xe937;" glyph-name="instagram" horiz-adv-x="1004" d="M811.45 943.315h-610.665c-106.074 0-192.371-86.277-192.371-192.351v-610.685c0-106.074 86.297-192.351 192.371-192.351h610.685c106.074 0 192.351 86.277 192.351 192.351v610.706c-0.020 106.074-86.297 192.331-192.371 192.331v0zM866.625 828.607l22.006 0.080v-168.719l-168.157-0.542-0.582 168.699 146.733 0.482zM364.042 547.79c31.885 44.112 83.607 73.045 142.075 73.045s110.19-28.933 142.035-73.045c20.741-28.792 33.17-64.010 33.17-102.159 0-96.597-78.667-175.184-175.224-175.184-96.617 0-175.204 78.587-175.204 175.184 0.020 38.149 12.408 73.367 33.149 102.159v0zM906.822 140.298c0-52.626-42.787-95.373-95.373-95.373h-610.665c-52.605 0-95.393 42.747-95.393 95.373v407.492h148.58c-12.83-31.563-20.038-66.038-20.038-102.159 0-150.046 122.077-272.203 272.183-272.203 150.086 0 272.163 122.157 272.163 272.203 0 36.121-7.248 70.596-20.078 102.159h148.621v-407.492z" />
<glyph unicode="&#xe938;" glyph-name="pinterest" horiz-adv-x="803" d="M429.156 947.511c-272.786 0-410.343-195.564-410.343-358.681 0-98.746 37.386-186.589 117.559-219.297 13.151-5.421 24.937-0.201 28.752 14.356 2.65 10.039 8.935 35.459 11.726 46.080 3.835 14.396 2.349 19.416-8.272 32.005-23.11 27.246-37.908 62.544-37.908 112.58 0 145.087 108.564 274.974 282.684 274.974 154.182 0 238.893-94.208 238.893-219.999 0-165.567-73.266-305.293-182.011-305.293-60.075 0-105.010 49.654-90.634 110.592 17.247 72.744 50.678 151.211 50.678 203.756 0 46.984-25.239 86.177-77.422 86.177-61.4 0-110.733-63.528-110.733-148.6 0-54.192 18.312-90.855 18.312-90.855s-62.825-266.24-73.848-312.862c-21.926-92.863-3.293-206.667-1.707-218.152 0.924-6.827 9.678-8.473 13.653-3.333 5.642 7.409 78.808 97.682 103.645 187.914 7.048 25.52 40.378 157.796 40.378 157.796 19.958-38.069 78.266-71.519 140.268-71.519 184.541 0 309.77 168.237 309.77 393.437 0.020 170.325-144.223 328.925-363.44 328.925v0z" />
<glyph unicode="&#xe939;" glyph-name="check" horiz-adv-x="1434" d="M552.96-25.088c-27.648 0-53.248 11.264-72.704 30.72l-395.264 395.264c-39.936 39.936-39.936 104.448 0 144.384 39.936 40.96 104.448 40.96 144.384 0l323.584-322.56 667.648 667.648c39.936 39.936 105.472 39.936 145.408 0s39.936-104.448 0-144.384l-740.352-741.376c-19.456-18.432-45.056-29.696-72.704-29.696v0z" />
<glyph unicode="&#xe93a;" glyph-name="exclamation" horiz-adv-x="216" d="M98.627 762.206c54.973 0 99.166 44.194 99.166 99.166 0 54.434-44.194 98.627-99.166 98.627-54.434 0-98.627-44.194-98.627-98.627 0-54.973 44.194-99.166 98.627-99.166zM13.474 472.792c0 59.284 44.194 107.789 98.627 107.789s99.166-48.505 99.166-107.789v-386.425c0-59.284-44.733-107.789-99.166-107.789s-98.627 48.505-98.627 107.789v386.425z" />
<glyph unicode="&#xe93b;" glyph-name="facebook" horiz-adv-x="523" d="M199.589 930.092c-38.343-20.799-65.195-48.606-79.918-82.716-13.767-32.063-20.503-77.437-20.503-138.991v-20.935h-99.169v-200.226h99.169v-534.505h238.296v534.482h133.461v200.226h-133.461v17.772c0 38.571 7.919 48.265 8.897 49.311 5.12 5.507 17.135 8.533 33.724 8.533 23.689 0 48.947-3.095 75.048-9.353l30.242-7.214 35.18 181.316-25.486 8.033c-103.287 32.449-222.504 33.86-295.481-5.734v0z" />
<glyph unicode="&#xe93c;" glyph-name="twitter" horiz-adv-x="1252" d="M1227.256 840.137c-5.364 6.812-13.887 10.234-22.456 9.001-5.086-0.724-11.513-1.988-19.836-3.807-7.737-1.68-17.185-3.915-27.727-6.535 4.038 9.247 7.444 18.865 10.48 28.898 4.947 16.491 9.063 34.031 13.332 52.634 2.158 9.325-1.356 19.034-9.001 24.829-7.66 5.78-17.956 6.504-26.371 1.88-37.791-20.853-66.042-34.077-90.471-42.723-20.606-7.275-38.654-11.421-58.521-14.241-23.304 21.963-49.443 38.855-77.478 50.414-31.642 13.116-65.549 19.512-100.181 19.512-41.429-0.015-83.905-9.109-125.411-26.602v0c-20.175-8.508-38.932-21.13-55.901-36.543-25.431-23.165-46.869-52.68-62.205-85.585s-24.583-69.233-24.598-106.053c0-3.869 0.139-7.752 0.324-11.606-0.647 0.17-1.248 0.324-1.88 0.493-44.064 11.683-111.925 34.801-179.278 64.84-27.619 12.268-65.811 36.774-103.063 68.339-37.36 31.518-74.119 70.219-100.69 110.461-4.007 6.088-10.527 10.018-17.771 10.758s-14.441-1.819-19.589-6.966c-11.559-11.498-21.331-22.163-29.715-32.782-12.546-15.906-21.855-31.996-28.143-49.52-6.319-17.524-9.617-36.019-11.621-57.196-1.372-14.287-2.281-29.654-2.281-45.513 0.062-35.002 4.362-72.531 19.373-106.562-11.436-1.372-20.529-10.635-21.331-22.317-0.632-9.14-0.94-18.079-0.94-26.849-0.046-78.958 25.138-143.228 64.655-187.847 3.853-4.377 7.876-8.461 11.991-12.469-0.015-0.185-0.046-0.339-0.046-0.555-0.046-1.587-0.062-3.144-0.062-4.716-0.015-30.131 7.783-58.413 20.992-83.428 19.82-37.591 51.308-68.061 87.604-90.317 13.393-8.184 27.465-15.243 41.953-21.161-61.049-19.481-111.386-23.951-152.861-23.997-18.418 0-35.125 0.925-50.399 1.819-15.274 0.94-29.099 1.942-42.091 1.942-3.098 0-6.134-0.077-9.14-0.2-7.29-0.339-13.964-3.869-18.31-9.694-4.362-5.841-5.872-13.224-4.161-20.314 7.182-29.237 24.552-55.824 48.534-79.313 36.127-35.202 87.635-64.208 149.516-84.954 61.866-20.653 134.181-32.875 211.814-32.875 113.174 0 237.768 26.032 356.583 90.656 108.565 59.184 198.883 156.097 253.196 264.139 18.742 37.36 39.225 85.632 55.207 136.94 15.952 51.324 27.542 105.468 27.573 155.481 0 16.969-1.403 33.476-4.531 49.274 13.748 9.879 26.016 19.497 37.113 29.237 21.994 19.296 39.348 39.24 53.774 61.634 14.457 22.425 26.016 47.039 37.529 76.107 3.237 8.045 1.911 17.139-3.483 23.951v0z" />
</font>
</defs>
</svg>
